<?xml version="1.0" encoding="UTF-8" standalone="no"?>
<!DOCTYPE svg PUBLIC "-//W3C//DTD SVG 1.1//EN"
 "http://www.w3.org/Graphics/SVG/1.1/DTD/svg11.dtd">
<!-- Generated by graphviz version 13.1.0 (20250701.0955)
 -->
<!-- Title: G Pages: 1 -->
<svg width="1202pt" height="612pt"
 viewBox="0.00 0.00 1202.00 612.00" xmlns="http://www.w3.org/2000/svg" xmlns:xlink="http://www.w3.org/1999/xlink">
<g id="graph0" class="graph" transform="scale(1 1) rotate(0) translate(4 608.31)">
<title>G</title><style>.edge>path:hover{stroke-width:8}</style>
<polygon fill="white" stroke="none" points="-4,4 -4,-608.31 1198.41,-608.31 1198.41,4 -4,4"/>
<!-- huggingface_hub -->
<g id="node1" class="node">
<title>huggingface_hub</title><style>.edge>path:hover{stroke-width:8}</style>
<polygon fill="#b6a853" stroke="black" points="348.23,-495.31 345.23,-499.31 324.23,-499.31 321.23,-495.31 258.73,-495.31 258.73,-459.31 348.23,-459.31 348.23,-495.31"/>
<text xml:space="preserve" text-anchor="middle" x="303.48" y="-473.43" font-family="Helvetica,sans-Serif" font-size="10.00" fill="#000000">huggingface_hub</text>
</g>
<!-- llava_model_builder -->
<g id="node8" class="node">
<title>llava_model_builder</title><style>.edge>path:hover{stroke-width:8}</style>
<ellipse fill="#4fac2b" stroke="black" cx="245.48" cy="-219.61" rx="32" ry="29.52"/>
<text xml:space="preserve" text-anchor="middle" x="245.48" y="-226.98" font-family="Helvetica,sans-Serif" font-size="10.00" fill="#000000">llava.</text>
<text xml:space="preserve" text-anchor="middle" x="245.48" y="-215.73" font-family="Helvetica,sans-Serif" font-size="10.00" fill="#000000">model.</text>
<text xml:space="preserve" text-anchor="middle" x="245.48" y="-204.48" font-family="Helvetica,sans-Serif" font-size="10.00" fill="#000000">builder</text>
</g>
<!-- huggingface_hub&#45;&gt;llava_model_builder -->
<g id="edge1" class="edge">
<title>huggingface_hub&#45;&gt;llava_model_builder</title><style>.edge>path:hover{stroke-width:8}</style>
<path fill="none" stroke="black" d="M303.48,-313.65C286.62,-297.74 272.68,-275.92 262.69,-257.4"/>
<polygon fill="#b6a853" stroke="black" points="265.83,-255.84 258.11,-248.58 259.61,-259.07 265.83,-255.84"/>
<path fill="none" stroke="black" d="M310.5,-458.88C322.65,-425.52 342.74,-352.69 303.48,-315.65"/>
</g>
<!-- llava -->
<g id="node2" class="node">
<title>llava</title><style>.edge>path:hover{stroke-width:8}</style>
<ellipse fill="#4bf906" stroke="black" cx="80.48" cy="-124.57" rx="27" ry="18"/>
<text xml:space="preserve" text-anchor="middle" x="80.48" y="-120.69" font-family="Helvetica,sans-Serif" font-size="10.00" fill="#000000">llava</text>
</g>
<!-- llava_constants -->
<g id="node3" class="node">
<title>llava_constants</title><style>.edge>path:hover{stroke-width:8}</style>
<ellipse fill="#53f910" stroke="black" cx="643.48" cy="-401.74" rx="41.54" ry="21.57"/>
<text xml:space="preserve" text-anchor="middle" x="643.48" y="-403.49" font-family="Helvetica,sans-Serif" font-size="10.00" fill="#000000">llava.</text>
<text xml:space="preserve" text-anchor="middle" x="643.48" y="-392.24" font-family="Helvetica,sans-Serif" font-size="10.00" fill="#000000">constants</text>
</g>
<!-- llava_mm_utils -->
<g id="node5" class="node">
<title>llava_mm_utils</title><style>.edge>path:hover{stroke-width:8}</style>
<ellipse fill="#46c115" stroke="black" cx="378.48" cy="-314.65" rx="46.74" ry="18"/>
<text xml:space="preserve" text-anchor="middle" x="378.48" y="-310.78" font-family="Helvetica,sans-Serif" font-size="10.00" fill="#000000">llava.mm_utils</text>
</g>
<!-- llava_constants&#45;&gt;llava_mm_utils -->
<g id="edge2" class="edge">
<title>llava_constants&#45;&gt;llava_mm_utils</title><style>.edge>path:hover{stroke-width:8}</style>
<path fill="none" stroke="black" d="M605.66,-392.26C564.26,-382.51 496.19,-365.13 439.48,-344.17 431.72,-341.3 423.58,-337.84 415.87,-334.33"/>
<polygon fill="#53f910" stroke="black" points="417.61,-331.28 407.07,-330.21 414.64,-337.62 417.61,-331.28"/>
</g>
<!-- llava_constants&#45;&gt;llava_model_builder -->
<g id="edge3" class="edge">
<title>llava_constants&#45;&gt;llava_model_builder</title><style>.edge>path:hover{stroke-width:8}</style>
<path fill="none" stroke="black" d="M603.29,-395.46C522.43,-384.57 345.75,-359.38 322.48,-344.17 309.73,-335.84 314.56,-326.11 303.48,-315.65"/>
</g>
<!-- llava_model_llava_arch -->
<g id="node10" class="node">
<title>llava_model_llava_arch</title><style>.edge>path:hover{stroke-width:8}</style>
<ellipse fill="#599640" stroke="black" cx="311.48" cy="-124.57" rx="42.6" ry="29.52"/>
<text xml:space="preserve" text-anchor="middle" x="311.48" y="-131.94" font-family="Helvetica,sans-Serif" font-size="10.00" fill="#ffffff">llava.</text>
<text xml:space="preserve" text-anchor="middle" x="311.48" y="-120.69" font-family="Helvetica,sans-Serif" font-size="10.00" fill="#ffffff">model.</text>
<text xml:space="preserve" text-anchor="middle" x="311.48" y="-109.44" font-family="Helvetica,sans-Serif" font-size="10.00" fill="#ffffff">llava_arch</text>
</g>
<!-- llava_constants&#45;&gt;llava_model_llava_arch -->
<g id="edge4" class="edge">
<title>llava_constants&#45;&gt;llava_model_llava_arch</title><style>.edge>path:hover{stroke-width:8}</style>
<path fill="none" stroke="black" d="M646.77,-379.96C651.38,-345.89 657.55,-276.35 641.48,-220.61"/>
<path fill="none" stroke="black" d="M641.48,-218.61C606.65,-117.41 513.8,-178 409.48,-154.09 393.5,-150.42 376.27,-145.68 360.77,-141.12"/>
<polygon fill="#53f910" stroke="black" points="361.88,-137.8 351.29,-138.28 359.87,-144.5 361.88,-137.8"/>
</g>
<!-- llava_serve_cli -->
<g id="node13" class="node">
<title>llava_serve_cli</title><style>.edge>path:hover{stroke-width:8}</style>
<ellipse fill="#3f6b2e" stroke="black" cx="456.48" cy="-29.52" rx="30.41" ry="29.52"/>
<text xml:space="preserve" text-anchor="middle" x="456.48" y="-36.9" font-family="Helvetica,sans-Serif" font-size="10.00" fill="#ffffff">llava.</text>
<text xml:space="preserve" text-anchor="middle" x="456.48" y="-25.65" font-family="Helvetica,sans-Serif" font-size="10.00" fill="#ffffff">serve.</text>
<text xml:space="preserve" text-anchor="middle" x="456.48" y="-14.4" font-family="Helvetica,sans-Serif" font-size="10.00" fill="#ffffff">cli</text>
</g>
<!-- llava_constants&#45;&gt;llava_serve_cli -->
<g id="edge5" class="edge">
<title>llava_constants&#45;&gt;llava_serve_cli</title><style>.edge>path:hover{stroke-width:8}</style>
<path fill="none" stroke="black" d="M559.48,-123.57C550.39,-110.39 548.71,-106.45 537.48,-95.04 522.96,-80.3 505.12,-65.77 489.89,-54.24"/>
<polygon fill="#53f910" stroke="black" points="492.12,-51.54 482,-48.38 487.94,-57.15 492.12,-51.54"/>
<path fill="none" stroke="black" d="M641.48,-218.61C628.44,-180.71 605.4,-183.78 578.48,-154.09 568.25,-142.8 568.14,-138.1 559.48,-125.57"/>
</g>
<!-- llava_serve_controller -->
<g id="node14" class="node">
<title>llava_serve_controller</title><style>.edge>path:hover{stroke-width:8}</style>
<ellipse fill="#599640" stroke="black" cx="950.48" cy="-124.57" rx="39.42" ry="29.52"/>
<text xml:space="preserve" text-anchor="middle" x="950.48" y="-131.94" font-family="Helvetica,sans-Serif" font-size="10.00" fill="#ffffff">llava.</text>
<text xml:space="preserve" text-anchor="middle" x="950.48" y="-120.69" font-family="Helvetica,sans-Serif" font-size="10.00" fill="#ffffff">serve.</text>
<text xml:space="preserve" text-anchor="middle" x="950.48" y="-109.44" font-family="Helvetica,sans-Serif" font-size="10.00" fill="#ffffff">controller</text>
</g>
<!-- llava_constants&#45;&gt;llava_serve_controller -->
<g id="edge6" class="edge">
<title>llava_constants&#45;&gt;llava_serve_controller</title><style>.edge>path:hover{stroke-width:8}</style>
<path fill="none" stroke="black" d="M685.11,-400.75C738.28,-398.81 831,-388.63 894.48,-344.17 935.6,-315.38 941.36,-297.29 955.48,-249.13 963.46,-221.92 961.88,-189.89 958.47,-165.27"/>
<polygon fill="#53f910" stroke="black" points="961.98,-165.01 956.98,-155.67 955.06,-166.08 961.98,-165.01"/>
</g>
<!-- llava_serve_gradio_web_server -->
<g id="node15" class="node">
<title>llava_serve_gradio_web_server</title><style>.edge>path:hover{stroke-width:8}</style>
<ellipse fill="#599640" stroke="black" cx="656.48" cy="-124.57" rx="69.12" ry="29.52"/>
<text xml:space="preserve" text-anchor="middle" x="656.48" y="-131.94" font-family="Helvetica,sans-Serif" font-size="10.00" fill="#ffffff">llava.</text>
<text xml:space="preserve" text-anchor="middle" x="656.48" y="-120.69" font-family="Helvetica,sans-Serif" font-size="10.00" fill="#ffffff">serve.</text>
<text xml:space="preserve" text-anchor="middle" x="656.48" y="-109.44" font-family="Helvetica,sans-Serif" font-size="10.00" fill="#ffffff">gradio_web_server</text>
</g>
<!-- llava_constants&#45;&gt;llava_serve_gradio_web_server -->
<g id="edge7" class="edge">
<title>llava_constants&#45;&gt;llava_serve_gradio_web_server</title><style>.edge>path:hover{stroke-width:8}</style>
<path fill="none" stroke="black" d="M641.48,-218.61C636.51,-201.36 638.55,-181.82 642.51,-165.1"/>
<polygon fill="#53f910" stroke="black" points="645.88,-166.08 645.1,-155.51 639.12,-164.25 645.88,-166.08"/>
</g>
<!-- llava_serve_model_worker -->
<g id="node16" class="node">
<title>llava_serve_model_worker</title><style>.edge>path:hover{stroke-width:8}</style>
<ellipse fill="#4c8137" stroke="black" cx="559.48" cy="-29.52" rx="54.27" ry="29.52"/>
<text xml:space="preserve" text-anchor="middle" x="559.48" y="-36.9" font-family="Helvetica,sans-Serif" font-size="10.00" fill="#ffffff">llava.</text>
<text xml:space="preserve" text-anchor="middle" x="559.48" y="-25.65" font-family="Helvetica,sans-Serif" font-size="10.00" fill="#ffffff">serve.</text>
<text xml:space="preserve" text-anchor="middle" x="559.48" y="-14.4" font-family="Helvetica,sans-Serif" font-size="10.00" fill="#ffffff">model_worker</text>
</g>
<!-- llava_constants&#45;&gt;llava_serve_model_worker -->
<g id="edge8" class="edge">
<title>llava_constants&#45;&gt;llava_serve_model_worker</title><style>.edge>path:hover{stroke-width:8}</style>
<path fill="none" stroke="black" d="M559.48,-123.57C548.94,-108.3 547.86,-88 549.87,-70.27"/>
<polygon fill="#53f910" stroke="black" points="553.3,-70.96 551.34,-60.55 546.38,-69.92 553.3,-70.96"/>
</g>
<!-- llava_serve_sglang_worker -->
<g id="node18" class="node">
<title>llava_serve_sglang_worker</title><style>.edge>path:hover{stroke-width:8}</style>
<ellipse fill="#599640" stroke="black" cx="799.48" cy="-124.57" rx="55.86" ry="29.52"/>
<text xml:space="preserve" text-anchor="middle" x="799.48" y="-131.94" font-family="Helvetica,sans-Serif" font-size="10.00" fill="#ffffff">llava.</text>
<text xml:space="preserve" text-anchor="middle" x="799.48" y="-120.69" font-family="Helvetica,sans-Serif" font-size="10.00" fill="#ffffff">serve.</text>
<text xml:space="preserve" text-anchor="middle" x="799.48" y="-109.44" font-family="Helvetica,sans-Serif" font-size="10.00" fill="#ffffff">sglang_worker</text>
</g>
<!-- llava_constants&#45;&gt;llava_serve_sglang_worker -->
<g id="edge9" class="edge">
<title>llava_constants&#45;&gt;llava_serve_sglang_worker</title><style>.edge>path:hover{stroke-width:8}</style>
<path fill="none" stroke="black" d="M641.48,-218.61C637.26,-203.97 648.92,-200 660.48,-190.09 664.19,-186.91 709.29,-166.19 747.14,-149.07"/>
<polygon fill="#53f910" stroke="black" points="748.52,-152.28 756.2,-144.98 745.64,-145.9 748.52,-152.28"/>
</g>
<!-- llava_utils -->
<g id="node20" class="node">
<title>llava_utils</title><style>.edge>path:hover{stroke-width:8}</style>
<ellipse fill="#45d60b" stroke="black" cx="851.48" cy="-314.65" rx="33.87" ry="18"/>
<text xml:space="preserve" text-anchor="middle" x="851.48" y="-310.78" font-family="Helvetica,sans-Serif" font-size="10.00" fill="#000000">llava.utils</text>
</g>
<!-- llava_constants&#45;&gt;llava_utils -->
<g id="edge10" class="edge">
<title>llava_constants&#45;&gt;llava_utils</title><style>.edge>path:hover{stroke-width:8}</style>
<path fill="none" stroke="black" d="M675.53,-387.63C713.13,-372.25 775.35,-346.8 814.84,-330.64"/>
<polygon fill="#53f910" stroke="black" points="816,-333.95 823.93,-326.92 813.35,-327.47 816,-333.95"/>
</g>
<!-- llava_conversation -->
<g id="node4" class="node">
<title>llava_conversation</title><style>.edge>path:hover{stroke-width:8}</style>
<ellipse fill="#56d024" stroke="black" cx="185.48" cy="-314.65" rx="50.56" ry="21.57"/>
<text xml:space="preserve" text-anchor="middle" x="185.48" y="-316.4" font-family="Helvetica,sans-Serif" font-size="10.00" fill="#000000">llava.</text>
<text xml:space="preserve" text-anchor="middle" x="185.48" y="-305.15" font-family="Helvetica,sans-Serif" font-size="10.00" fill="#000000">conversation</text>
</g>
<!-- llava_conversation&#45;&gt;llava_serve_cli -->
<g id="edge11" class="edge">
<title>llava_conversation&#45;&gt;llava_serve_cli</title><style>.edge>path:hover{stroke-width:8}</style>
<path fill="none" stroke="black" d="M139.3,-305.6C95.32,-294.97 33.01,-271.3 13.48,-220.61"/>
</g>
<!-- llava_conversation&#45;&gt;llava_serve_gradio_web_server -->
<g id="edge12" class="edge">
<title>llava_conversation&#45;&gt;llava_serve_gradio_web_server</title><style>.edge>path:hover{stroke-width:8}</style>
<path fill="none" stroke="black" d="M185.48,-218.61C194.85,-206.6 191.42,-197.92 204.48,-190.09 275.14,-147.71 492.97,-171.59 573.48,-154.09 580.6,-152.54 587.96,-150.57 595.21,-148.4"/>
<polygon fill="#56d024" stroke="black" points="596.17,-151.77 604.66,-145.43 594.07,-145.09 596.17,-151.77"/>
</g>
<!-- llava_serve_test_message -->
<g id="node19" class="node">
<title>llava_serve_test_message</title><style>.edge>path:hover{stroke-width:8}</style>
<ellipse fill="#61a446" stroke="black" cx="473.48" cy="-124.57" rx="54.8" ry="29.52"/>
<text xml:space="preserve" text-anchor="middle" x="473.48" y="-131.94" font-family="Helvetica,sans-Serif" font-size="10.00" fill="#000000">llava.</text>
<text xml:space="preserve" text-anchor="middle" x="473.48" y="-120.69" font-family="Helvetica,sans-Serif" font-size="10.00" fill="#000000">serve.</text>
<text xml:space="preserve" text-anchor="middle" x="473.48" y="-109.44" font-family="Helvetica,sans-Serif" font-size="10.00" fill="#000000">test_message</text>
</g>
<!-- llava_conversation&#45;&gt;llava_serve_test_message -->
<g id="edge13" class="edge">
<title>llava_conversation&#45;&gt;llava_serve_test_message</title><style>.edge>path:hover{stroke-width:8}</style>
<path fill="none" stroke="black" d="M178.77,-292.81C173.56,-272.23 169.58,-240.98 185.48,-220.61"/>
<path fill="none" stroke="black" d="M185.48,-218.61C194.85,-206.6 191.94,-198.72 204.48,-190.09 264.16,-149 293.07,-171.18 363.48,-154.09 379.84,-150.12 397.51,-145.62 413.8,-141.4"/>
<polygon fill="#56d024" stroke="black" points="414.57,-144.82 423.36,-138.91 412.8,-138.04 414.57,-144.82"/>
</g>
<!-- llava_mm_utils&#45;&gt;llava_model_llava_arch -->
<g id="edge14" class="edge">
<title>llava_mm_utils&#45;&gt;llava_model_llava_arch</title><style>.edge>path:hover{stroke-width:8}</style>
<path fill="none" stroke="black" d="M305.48,-218.61C295.13,-203.01 295.36,-182.51 298.72,-164.73"/>
<polygon fill="#46c115" stroke="black" points="302.13,-165.52 300.96,-154.99 295.31,-163.95 302.13,-165.52"/>
</g>
<!-- llava_mm_utils&#45;&gt;llava_serve_cli -->
<g id="edge15" class="edge">
<title>llava_mm_utils&#45;&gt;llava_serve_cli</title><style>.edge>path:hover{stroke-width:8}</style>
<path fill="none" stroke="black" d="M305.48,-218.61C297.06,-205.92 297.5,-200.6 286.48,-190.09 263.98,-168.62 250.15,-174.26 226.48,-154.09 213.87,-143.34 195.25,-140.47 202.48,-125.57"/>
<path fill="none" stroke="black" d="M364.19,-297.11C348.82,-278.96 324.1,-248.67 305.48,-220.61"/>
</g>
<!-- llava_mm_utils&#45;&gt;llava_serve_model_worker -->
<g id="edge16" class="edge">
<title>llava_mm_utils&#45;&gt;llava_serve_model_worker</title><style>.edge>path:hover{stroke-width:8}</style>
<path fill="none" stroke="black" d="M305.48,-218.61C297.06,-205.92 295.28,-202.52 286.48,-190.09 274.93,-173.76 271.03,-170.42 259.48,-154.09 250.69,-141.65 229.63,-136.25 240.48,-125.57"/>
</g>
<!-- llava_mm_utils&#45;&gt;llava_serve_sglang_worker -->
<g id="edge17" class="edge">
<title>llava_mm_utils&#45;&gt;llava_serve_sglang_worker</title><style>.edge>path:hover{stroke-width:8}</style>
<path fill="none" stroke="black" d="M375.77,-296.32C372.63,-269.31 371.17,-217.44 400.48,-190.09 455.05,-139.15 662.35,-173.31 734.48,-154.09 739.23,-152.82 744.08,-151.26 748.88,-149.52"/>
<polygon fill="#46c115" stroke="black" points="749.79,-152.92 757.84,-146.03 747.26,-146.4 749.79,-152.92"/>
</g>
<!-- llava_model -->
<g id="node6" class="node">
<title>llava_model</title><style>.edge>path:hover{stroke-width:8}</style>
<ellipse fill="#53f910" stroke="black" cx="80.48" cy="-219.61" rx="38.76" ry="18"/>
<text xml:space="preserve" text-anchor="middle" x="80.48" y="-215.73" font-family="Helvetica,sans-Serif" font-size="10.00" fill="#000000">llava.model</text>
</g>
<!-- llava_model&#45;&gt;llava -->
<g id="edge18" class="edge">
<title>llava_model&#45;&gt;llava</title><style>.edge>path:hover{stroke-width:8}</style>
<path fill="none" stroke="black" d="M80.48,-201.54C80.48,-188.25 80.48,-169.5 80.48,-153.96"/>
<polygon fill="#53f910" stroke="black" points="83.98,-154.35 80.48,-144.35 76.98,-154.35 83.98,-154.35"/>
</g>
<!-- llava_model&#45;&gt;llava_serve_cli -->
<g id="edge19" class="edge">
<title>llava_model&#45;&gt;llava_serve_cli</title><style>.edge>path:hover{stroke-width:8}</style>
<path fill="none" stroke="black" d="M58.17,-204.78C32.75,-187.17 -3.24,-155.44 13.48,-125.57"/>
</g>
<!-- llava_model&#45;&gt;llava_serve_model_worker -->
<g id="edge20" class="edge">
<title>llava_model&#45;&gt;llava_serve_model_worker</title><style>.edge>path:hover{stroke-width:8}</style>
<path fill="none" stroke="black" d="M240.48,-123.57C251.34,-112.88 246.64,-103.23 259.48,-95.04 348.97,-38.03 393.67,-88.91 495.48,-59.04 500.01,-57.71 504.64,-56.13 509.23,-54.41"/>
<polygon fill="#53f910" stroke="black" points="510.43,-57.7 518.41,-50.73 507.83,-51.2 510.43,-57.7"/>
<path fill="none" stroke="black" d="M111.47,-208.27C140.48,-197.62 184.1,-179.07 216.48,-154.09 229.6,-143.97 228.67,-137.18 240.48,-125.57"/>
</g>
<!-- llava_model_apply_delta -->
<g id="node7" class="node">
<title>llava_model_apply_delta</title><style>.edge>path:hover{stroke-width:8}</style>
<ellipse fill="#61a446" stroke="black" cx="715.48" cy="-219.61" rx="46.32" ry="29.52"/>
<text xml:space="preserve" text-anchor="middle" x="715.48" y="-226.98" font-family="Helvetica,sans-Serif" font-size="10.00" fill="#000000">llava.</text>
<text xml:space="preserve" text-anchor="middle" x="715.48" y="-215.73" font-family="Helvetica,sans-Serif" font-size="10.00" fill="#000000">model.</text>
<text xml:space="preserve" text-anchor="middle" x="715.48" y="-204.48" font-family="Helvetica,sans-Serif" font-size="10.00" fill="#000000">apply_delta</text>
</g>
<!-- llava_model_builder&#45;&gt;llava_serve_cli -->
<g id="edge21" class="edge">
<title>llava_model_builder&#45;&gt;llava_serve_cli</title><style>.edge>path:hover{stroke-width:8}</style>
<path fill="none" stroke="black" d="M224.11,-197.07C208.04,-178.14 190.67,-149.9 202.48,-125.57"/>
</g>
<!-- llava_model_builder&#45;&gt;llava_serve_model_worker -->
<g id="edge22" class="edge">
<title>llava_model_builder&#45;&gt;llava_serve_model_worker</title><style>.edge>path:hover{stroke-width:8}</style>
<path fill="none" stroke="black" d="M234.32,-191.44C227.7,-170.45 223.53,-142.24 240.48,-125.57"/>
</g>
<!-- llava_model_consolidate -->
<g id="node9" class="node">
<title>llava_model_consolidate</title><style>.edge>path:hover{stroke-width:8}</style>
<ellipse fill="#5d9d43" stroke="black" cx="455.48" cy="-219.61" rx="46.32" ry="29.52"/>
<text xml:space="preserve" text-anchor="middle" x="455.48" y="-226.98" font-family="Helvetica,sans-Serif" font-size="10.00" fill="#000000">llava.</text>
<text xml:space="preserve" text-anchor="middle" x="455.48" y="-215.73" font-family="Helvetica,sans-Serif" font-size="10.00" fill="#000000">model.</text>
<text xml:space="preserve" text-anchor="middle" x="455.48" y="-204.48" font-family="Helvetica,sans-Serif" font-size="10.00" fill="#000000">consolidate</text>
</g>
<!-- llava_model_make_delta -->
<g id="node11" class="node">
<title>llava_model_make_delta</title><style>.edge>path:hover{stroke-width:8}</style>
<ellipse fill="#599640" stroke="black" cx="566.48" cy="-219.61" rx="46.85" ry="29.52"/>
<text xml:space="preserve" text-anchor="middle" x="566.48" y="-226.98" font-family="Helvetica,sans-Serif" font-size="10.00" fill="#ffffff">llava.</text>
<text xml:space="preserve" text-anchor="middle" x="566.48" y="-215.73" font-family="Helvetica,sans-Serif" font-size="10.00" fill="#ffffff">model.</text>
<text xml:space="preserve" text-anchor="middle" x="566.48" y="-204.48" font-family="Helvetica,sans-Serif" font-size="10.00" fill="#ffffff">make_delta</text>
</g>
<!-- llava_model_utils -->
<g id="node12" class="node">
<title>llava_model_utils</title><style>.edge>path:hover{stroke-width:8}</style>
<ellipse fill="#65ce3b" stroke="black" cx="513.48" cy="-314.65" rx="32" ry="29.52"/>
<text xml:space="preserve" text-anchor="middle" x="513.48" y="-322.03" font-family="Helvetica,sans-Serif" font-size="10.00" fill="#000000">llava.</text>
<text xml:space="preserve" text-anchor="middle" x="513.48" y="-310.78" font-family="Helvetica,sans-Serif" font-size="10.00" fill="#000000">model.</text>
<text xml:space="preserve" text-anchor="middle" x="513.48" y="-299.53" font-family="Helvetica,sans-Serif" font-size="10.00" fill="#000000">utils</text>
</g>
<!-- llava_model_utils&#45;&gt;llava_model_consolidate -->
<g id="edge23" class="edge">
<title>llava_model_utils&#45;&gt;llava_model_consolidate</title><style>.edge>path:hover{stroke-width:8}</style>
<path fill="none" stroke="black" d="M497.94,-288.72C491.88,-278.99 484.81,-267.65 478.19,-257.04"/>
<polygon fill="#65ce3b" stroke="black" points="481.35,-255.49 473.09,-248.86 475.41,-259.19 481.35,-255.49"/>
</g>
<!-- llava_model_utils&#45;&gt;llava_model_make_delta -->
<g id="edge24" class="edge">
<title>llava_model_utils&#45;&gt;llava_model_make_delta</title><style>.edge>path:hover{stroke-width:8}</style>
<path fill="none" stroke="black" d="M527.96,-288.23C533.34,-278.78 539.56,-267.87 545.41,-257.6"/>
<polygon fill="#65ce3b" stroke="black" points="548.43,-259.37 550.34,-248.95 542.35,-255.9 548.43,-259.37"/>
</g>
<!-- llava_serve_register_worker -->
<g id="node17" class="node">
<title>llava_serve_register_worker</title><style>.edge>path:hover{stroke-width:8}</style>
<ellipse fill="#6ab34c" stroke="black" cx="1104.48" cy="-219.61" rx="58.51" ry="29.52"/>
<text xml:space="preserve" text-anchor="middle" x="1104.48" y="-226.98" font-family="Helvetica,sans-Serif" font-size="10.00" fill="#000000">llava.</text>
<text xml:space="preserve" text-anchor="middle" x="1104.48" y="-215.73" font-family="Helvetica,sans-Serif" font-size="10.00" fill="#000000">serve.</text>
<text xml:space="preserve" text-anchor="middle" x="1104.48" y="-204.48" font-family="Helvetica,sans-Serif" font-size="10.00" fill="#000000">register_worker</text>
</g>
<!-- llava_utils&#45;&gt;llava_serve_cli -->
<g id="edge25" class="edge">
<title>llava_utils&#45;&gt;llava_serve_cli</title><style>.edge>path:hover{stroke-width:8}</style>
<path fill="none" stroke="black" d="M941.48,-218.61C941.86,-217.13 884.71,-126.47 883.48,-125.57"/>
<path fill="none" stroke="black" d="M869.23,-299.1C893.98,-278.24 936.42,-240.19 941.48,-220.61"/>
<path fill="none" stroke="black" d="M883.48,-123.57C871.22,-114.53 877.54,-102.88 864.48,-95.04 723.56,-10.51 650.37,-116.7 496.48,-59.04 493.83,-58.05 491.19,-56.83 488.6,-55.47"/>
<polygon fill="#45d60b" stroke="black" points="490.65,-52.62 480.29,-50.41 487.01,-58.6 490.65,-52.62"/>
</g>
<!-- llava_utils&#45;&gt;llava_serve_controller -->
<g id="edge26" class="edge">
<title>llava_utils&#45;&gt;llava_serve_controller</title><style>.edge>path:hover{stroke-width:8}</style>
<path fill="none" stroke="black" d="M941.48,-218.61C945.86,-201.67 948.15,-182.49 949.33,-165.97"/>
<polygon fill="#45d60b" stroke="black" points="952.82,-166.17 949.92,-155.98 945.83,-165.76 952.82,-166.17"/>
</g>
<!-- llava_utils&#45;&gt;llava_serve_gradio_web_server -->
<g id="edge27" class="edge">
<title>llava_utils&#45;&gt;llava_serve_gradio_web_server</title><style>.edge>path:hover{stroke-width:8}</style>
<path fill="none" stroke="black" d="M827.48,-218.61C819.14,-204.3 816.75,-200.01 803.48,-190.09 788.92,-179.19 751.01,-162.64 717.33,-149.03"/>
<polygon fill="#45d60b" stroke="black" points="719.04,-145.94 708.45,-145.47 716.43,-152.44 719.04,-145.94"/>
<path fill="none" stroke="black" d="M849.88,-296.46C847.45,-276.94 841.51,-244.68 827.48,-220.61"/>
</g>
<!-- llava_utils&#45;&gt;llava_serve_model_worker -->
<g id="edge28" class="edge">
<title>llava_utils&#45;&gt;llava_serve_model_worker</title><style>.edge>path:hover{stroke-width:8}</style>
<path fill="none" stroke="black" d="M883.48,-123.57C871.22,-114.53 877.09,-103.59 864.48,-95.04 792.75,-46.41 691.41,-33.37 625.58,-30.43"/>
<polygon fill="#45d60b" stroke="black" points="625.76,-26.93 615.63,-30.06 625.5,-33.93 625.76,-26.93"/>
</g>
<!-- llava_utils&#45;&gt;llava_serve_sglang_worker -->
<g id="edge29" class="edge">
<title>llava_utils&#45;&gt;llava_serve_sglang_worker</title><style>.edge>path:hover{stroke-width:8}</style>
<path fill="none" stroke="black" d="M827.48,-218.61C817.93,-202.23 811.37,-182.3 807.02,-165.1"/>
<polygon fill="#45d60b" stroke="black" points="810.51,-164.65 804.81,-155.72 803.69,-166.26 810.51,-164.65"/>
</g>
<!-- numpy -->
<g id="node21" class="node">
<title>numpy</title><style>.edge>path:hover{stroke-width:8}</style>
<polygon fill="#26d98c" stroke="black" points="1143.48,-604.31 1140.48,-608.31 1119.48,-608.31 1116.48,-604.31 1089.48,-604.31 1089.48,-568.31 1143.48,-568.31 1143.48,-604.31"/>
<text xml:space="preserve" text-anchor="middle" x="1116.48" y="-582.43" font-family="Helvetica,sans-Serif" font-size="10.00" fill="#000000">numpy</text>
</g>
<!-- numpy&#45;&gt;llava_serve_controller -->
<g id="edge30" class="edge">
<title>numpy&#45;&gt;llava_serve_controller</title><style>.edge>path:hover{stroke-width:8}</style>
<path fill="none" stroke="black" d="M1116.48,-531.31C1014.42,-416.41 1267.16,-311.14 1172.48,-190.09 1131.58,-137.78 1090.94,-173.65 1027.48,-154.09 1017.07,-150.88 1006.01,-147.04 995.62,-143.24"/>
<polygon fill="#26d98c" stroke="black" points="997.09,-140.05 986.5,-139.84 994.65,-146.61 997.09,-140.05"/>
</g>
<!-- PIL -->
<g id="node22" class="node">
<title>PIL</title><style>.edge>path:hover{stroke-width:8}</style>
<polygon fill="#e61919" stroke="black" points="240.48,-495.31 237.48,-499.31 216.48,-499.31 213.48,-495.31 186.48,-495.31 186.48,-459.31 240.48,-459.31 240.48,-495.31"/>
<text xml:space="preserve" text-anchor="middle" x="213.48" y="-473.43" font-family="Helvetica,sans-Serif" font-size="10.00" fill="#ffffff">PIL</text>
</g>
<!-- numpy&#45;&gt;PIL -->
<g id="edge31" class="edge">
<title>numpy&#45;&gt;PIL</title><style>.edge>path:hover{stroke-width:8}</style>
<path fill="none" stroke="black" d="M1121.86,-567.96C1124.26,-556.46 1124.91,-541.8 1116.48,-532.31"/>
<path fill="none" stroke="black" d="M1116.48,-531.31C1085.84,-496.81 362.63,-505.92 251.7,-494.19"/>
<polygon fill="#26d98c" stroke="black" points="252.49,-490.77 242.08,-492.71 251.43,-497.69 252.49,-490.77"/>
</g>
<!-- torch -->
<g id="node24" class="node">
<title>torch</title><style>.edge>path:hover{stroke-width:8}</style>
<polygon fill="blue" stroke="black" points="670.48,-495.31 667.48,-499.31 646.48,-499.31 643.48,-495.31 616.48,-495.31 616.48,-459.31 670.48,-459.31 670.48,-495.31"/>
<text xml:space="preserve" text-anchor="middle" x="643.48" y="-473.43" font-family="Helvetica,sans-Serif" font-size="10.00" fill="white">torch</text>
</g>
<!-- numpy&#45;&gt;torch -->
<g id="edge32" class="edge">
<title>numpy&#45;&gt;torch</title><style>.edge>path:hover{stroke-width:8}</style>
<path fill="none" stroke="black" d="M1116.48,-531.31C1085.83,-496.8 763.35,-506.67 681.89,-494.59"/>
<polygon fill="#26d98c" stroke="black" points="682.59,-491.16 672.1,-492.65 681.23,-498.03 682.59,-491.16"/>
</g>
<!-- PIL&#45;&gt;llava_conversation -->
<g id="edge33" class="edge">
<title>PIL&#45;&gt;llava_conversation</title><style>.edge>path:hover{stroke-width:8}</style>
<path fill="none" stroke="black" d="M13.48,-400.74C2.22,-349.24 70.6,-328.89 124.47,-320.87"/>
<polygon fill="#e61919" stroke="black" points="124.78,-324.36 134.21,-319.54 123.83,-317.42 124.78,-324.36"/>
</g>
<!-- PIL&#45;&gt;llava_mm_utils -->
<g id="edge34" class="edge">
<title>PIL&#45;&gt;llava_mm_utils</title><style>.edge>path:hover{stroke-width:8}</style>
<path fill="none" stroke="black" d="M231.45,-458.81C261.18,-429.87 320.6,-372.01 354.09,-339.4"/>
<polygon fill="#e61919" stroke="black" points="356.2,-342.23 360.93,-332.75 351.32,-337.22 356.2,-342.23"/>
</g>
<!-- PIL&#45;&gt;llava_serve_cli -->
<g id="edge35" class="edge">
<title>PIL&#45;&gt;llava_serve_cli</title><style>.edge>path:hover{stroke-width:8}</style>
<path fill="none" stroke="black" d="M186.14,-471.77C133.2,-462.22 21.19,-437.98 13.48,-402.74"/>
<path fill="none" stroke="black" d="M13.48,-218.61C-1.38,-180.02 -6.72,-161.65 13.48,-125.57"/>
<path fill="none" stroke="black" d="M13.48,-123.57C22.63,-107.23 27.62,-103.18 44.48,-95.04 109.53,-63.66 323.41,-42 414.65,-33.98"/>
<polygon fill="#e61919" stroke="black" points="414.75,-37.48 424.41,-33.13 414.14,-30.51 414.75,-37.48"/>
<path fill="none" stroke="black" d="M13.48,-400.74C-3.61,-322.53 42.26,-295.31 13.48,-220.61"/>
</g>
<!-- requests -->
<g id="node23" class="node">
<title>requests</title><style>.edge>path:hover{stroke-width:8}</style>
<polygon fill="#0691f9" stroke="black" points="983.48,-495.31 980.48,-499.31 959.48,-499.31 956.48,-495.31 929.48,-495.31 929.48,-459.31 983.48,-459.31 983.48,-495.31"/>
<text xml:space="preserve" text-anchor="middle" x="956.48" y="-473.43" font-family="Helvetica,sans-Serif" font-size="10.00" fill="#ffffff">requests</text>
</g>
<!-- requests&#45;&gt;llava_serve_cli -->
<g id="edge36" class="edge">
<title>requests&#45;&gt;llava_serve_cli</title><style>.edge>path:hover{stroke-width:8}</style>
<path fill="none" stroke="black" d="M1017.48,-218.61C1008.11,-163.84 1039.33,-132.71 998.48,-95.04 916.26,-19.23 601.71,-96.92 496.48,-59.04 493.81,-58.08 491.16,-56.89 488.57,-55.54"/>
<polygon fill="#0691f9" stroke="black" points="490.62,-52.69 480.25,-50.52 487,-58.68 490.62,-52.69"/>
</g>
<!-- requests&#45;&gt;llava_serve_controller -->
<g id="edge37" class="edge">
<title>requests&#45;&gt;llava_serve_controller</title><style>.edge>path:hover{stroke-width:8}</style>
<path fill="none" stroke="black" d="M1017.48,-218.61C1013.39,-194.72 998.04,-172.5 983.05,-155.77"/>
<polygon fill="#0691f9" stroke="black" points="985.75,-153.53 976.35,-148.65 980.65,-158.33 985.75,-153.53"/>
<path fill="none" stroke="black" d="M1017.48,-313.65C1015.53,-272.35 1024.46,-261.37 1017.48,-220.61"/>
</g>
<!-- requests&#45;&gt;llava_serve_gradio_web_server -->
<g id="edge38" class="edge">
<title>requests&#45;&gt;llava_serve_gradio_web_server</title><style>.edge>path:hover{stroke-width:8}</style>
<path fill="none" stroke="black" d="M1017.48,-400.74C1018.95,-393.26 847.78,-194.39 841.48,-190.09 800.06,-161.77 781.83,-170.7 734.48,-154.09 729.39,-152.3 724.13,-150.43 718.84,-148.53"/>
<polygon fill="#0691f9" stroke="black" points="720.04,-145.24 709.44,-145.14 717.66,-151.83 720.04,-145.24"/>
</g>
<!-- requests&#45;&gt;llava_serve_model_worker -->
<g id="edge39" class="edge">
<title>requests&#45;&gt;llava_serve_model_worker</title><style>.edge>path:hover{stroke-width:8}</style>
<path fill="none" stroke="black" d="M1017.48,-400.74C1040.83,-286.87 1227.07,-292.71 1172.48,-190.09 1136.99,-123.36 1102.09,-121.98 1031.48,-95.04 893.69,-42.47 718.86,-31.83 625.43,-30.22"/>
<polygon fill="#0691f9" stroke="black" points="625.74,-26.72 615.69,-30.08 625.64,-33.72 625.74,-26.72"/>
</g>
<!-- requests&#45;&gt;llava_serve_register_worker -->
<g id="edge40" class="edge">
<title>requests&#45;&gt;llava_serve_register_worker</title><style>.edge>path:hover{stroke-width:8}</style>
<path fill="none" stroke="black" d="M1017.48,-313.65C1016.22,-287 1035.47,-264.8 1056.18,-248.78"/>
<polygon fill="#0691f9" stroke="black" points="1058.15,-251.68 1064.18,-242.97 1054.04,-246.02 1058.15,-251.68"/>
</g>
<!-- requests&#45;&gt;llava_serve_sglang_worker -->
<g id="edge41" class="edge">
<title>requests&#45;&gt;llava_serve_sglang_worker</title><style>.edge>path:hover{stroke-width:8}</style>
<path fill="none" stroke="black" d="M1017.48,-313.65C1015.36,-268.65 908.15,-193.78 844.89,-153.41"/>
<polygon fill="#0691f9" stroke="black" points="847.12,-150.67 836.8,-148.28 843.37,-156.59 847.12,-150.67"/>
<path fill="none" stroke="black" d="M1017.48,-400.74C1024.74,-363.63 1017.19,-353.47 1017.48,-315.65"/>
</g>
<!-- requests&#45;&gt;llava_serve_test_message -->
<g id="edge42" class="edge">
<title>requests&#45;&gt;llava_serve_test_message</title><style>.edge>path:hover{stroke-width:8}</style>
<path fill="none" stroke="black" d="M929.01,-459.36C895.34,-437.13 839.04,-394.93 808.48,-344.17 772.1,-283.74 822.39,-237.85 770.48,-190.09 695.96,-121.51 643.14,-180.9 545.48,-154.09 539.09,-152.33 532.48,-150.19 525.99,-147.89"/>
<polygon fill="#0691f9" stroke="black" points="527.23,-144.61 516.64,-144.41 524.79,-151.17 527.23,-144.61"/>
</g>
<!-- requests&#45;&gt;llava_utils -->
<g id="edge43" class="edge">
<title>requests&#45;&gt;llava_utils</title><style>.edge>path:hover{stroke-width:8}</style>
<path fill="none" stroke="black" d="M1017.48,-400.74C1020.26,-386.53 938.11,-350.63 888.36,-330.3"/>
<polygon fill="#0691f9" stroke="black" points="889.96,-327.17 879.38,-326.66 887.33,-333.66 889.96,-327.17"/>
<path fill="none" stroke="black" d="M979.63,-459.01C994.94,-445.68 1012.99,-425.7 1017.48,-402.74"/>
</g>
<!-- torch&#45;&gt;llava_mm_utils -->
<g id="edge44" class="edge">
<title>torch&#45;&gt;llava_mm_utils</title><style>.edge>path:hover{stroke-width:8}</style>
<path fill="none" stroke="black" d="M453.48,-400.74C435.11,-380.73 414.76,-357.57 399.9,-340.48"/>
<polygon fill="blue" stroke="black" points="402.86,-338.54 393.66,-333.28 397.57,-343.13 402.86,-338.54"/>
</g>
<!-- torch&#45;&gt;llava_model_apply_delta -->
<g id="edge45" class="edge">
<title>torch&#45;&gt;llava_model_apply_delta</title><style>.edge>path:hover{stroke-width:8}</style>
<path fill="none" stroke="black" d="M670.65,-459.99C688.65,-447.14 709.93,-427.32 715.48,-402.74"/>
<path fill="none" stroke="black" d="M715.48,-400.74C726.15,-353.54 723.92,-297.58 720.49,-260.7"/>
<polygon fill="blue" stroke="black" points="723.99,-260.53 719.5,-250.94 717.03,-261.24 723.99,-260.53"/>
</g>
<!-- torch&#45;&gt;llava_model_builder -->
<g id="edge46" class="edge">
<title>torch&#45;&gt;llava_model_builder</title><style>.edge>path:hover{stroke-width:8}</style>
<path fill="none" stroke="black" d="M453.48,-400.74C410.6,-354.02 371.18,-384.8 322.48,-344.17 310.79,-334.42 314.65,-326.01 303.48,-315.65"/>
<path fill="none" stroke="black" d="M616.28,-473.36C575.11,-467.44 497.13,-450.3 453.48,-402.74"/>
</g>
<!-- torch&#45;&gt;llava_model_consolidate -->
<g id="edge47" class="edge">
<title>torch&#45;&gt;llava_model_consolidate</title><style>.edge>path:hover{stroke-width:8}</style>
<path fill="none" stroke="black" d="M453.48,-313.65C448.95,-296.52 448.67,-276.99 449.83,-260.25"/>
<polygon fill="blue" stroke="black" points="453.28,-260.97 450.69,-250.69 446.31,-260.34 453.28,-260.97"/>
</g>
<!-- torch&#45;&gt;llava_model_llava_arch -->
<g id="edge48" class="edge">
<title>torch&#45;&gt;llava_model_llava_arch</title><style>.edge>path:hover{stroke-width:8}</style>
<path fill="none" stroke="black" d="M343.48,-218.61C335.87,-201.14 328.82,-181.22 323.28,-164.31"/>
<polygon fill="blue" stroke="black" points="326.72,-163.58 320.33,-155.13 320.06,-165.72 326.72,-163.58"/>
<path fill="none" stroke="black" d="M453.48,-400.74C427.91,-372.88 463.14,-352.21 453.48,-315.65"/>
<path fill="none" stroke="black" d="M453.48,-313.65C437.12,-251.74 369.05,-279.32 343.48,-220.61"/>
</g>
<!-- torch&#45;&gt;llava_model_make_delta -->
<g id="edge49" class="edge">
<title>torch&#45;&gt;llava_model_make_delta</title><style>.edge>path:hover{stroke-width:8}</style>
<path fill="none" stroke="black" d="M573.48,-313.65C578.13,-296.5 577.51,-276.97 575.29,-260.24"/>
<polygon fill="blue" stroke="black" points="578.79,-260 573.77,-250.67 571.88,-261.09 578.79,-260"/>
<path fill="none" stroke="black" d="M453.48,-400.74C418.7,-362.83 516.73,-379.12 554.48,-344.17 565.66,-333.83 569.49,-330.35 573.48,-315.65"/>
</g>
<!-- torch&#45;&gt;llava_serve_cli -->
<g id="edge50" class="edge">
<title>torch&#45;&gt;llava_serve_cli</title><style>.edge>path:hover{stroke-width:8}</style>
<path fill="none" stroke="black" d="M616.06,-473.65C518.02,-463.53 187.41,-423.88 125.48,-344.17 109.38,-323.45 119.63,-310.71 125.48,-285.13 143.04,-208.37 168.1,-196.4 202.48,-125.57"/>
<path fill="none" stroke="black" d="M202.48,-123.57C239.44,-46.36 352.51,-31.93 414.59,-30.02"/>
<polygon fill="blue" stroke="black" points="414.48,-33.52 424.41,-29.82 414.34,-26.52 414.48,-33.52"/>
</g>
<!-- torch&#45;&gt;llava_serve_model_worker -->
<g id="edge51" class="edge">
<title>torch&#45;&gt;llava_serve_model_worker</title><style>.edge>path:hover{stroke-width:8}</style>
<path fill="none" stroke="black" d="M343.48,-218.61C337.27,-204.34 397.97,-105.52 409.48,-95.04 440.13,-67.15 457.45,-75.48 495.48,-59.04 499.51,-57.3 503.68,-55.48 507.86,-53.65"/>
<polygon fill="blue" stroke="black" points="509.11,-56.92 516.85,-49.68 506.28,-50.52 509.11,-56.92"/>
</g>
<!-- torch&#45;&gt;llava_utils -->
<g id="edge52" class="edge">
<title>torch&#45;&gt;llava_utils</title><style>.edge>path:hover{stroke-width:8}</style>
<path fill="none" stroke="black" d="M670.6,-461.2C687.92,-451.16 710.6,-437.3 729.48,-423.31 765.67,-396.5 804.1,-361.33 827.94,-338.61"/>
<polygon fill="blue" stroke="black" points="830.15,-341.34 834.94,-331.89 825.31,-336.29 830.15,-341.34"/>
</g>
<!-- tqdm -->
<g id="node25" class="node">
<title>tqdm</title><style>.edge>path:hover{stroke-width:8}</style>
<polygon fill="#c247b1" stroke="black" points="742.48,-495.31 739.48,-499.31 718.48,-499.31 715.48,-495.31 688.48,-495.31 688.48,-459.31 742.48,-459.31 742.48,-495.31"/>
<text xml:space="preserve" text-anchor="middle" x="715.48" y="-473.43" font-family="Helvetica,sans-Serif" font-size="10.00" fill="#ffffff">tqdm</text>
</g>
<!-- tqdm&#45;&gt;llava_model_apply_delta -->
<g id="edge53" class="edge">
<title>tqdm&#45;&gt;llava_model_apply_delta</title><style>.edge>path:hover{stroke-width:8}</style>
<path fill="none" stroke="black" d="M713.34,-458.83C711.99,-443.77 711.23,-421.55 715.48,-402.74"/>
</g>
<!-- tqdm&#45;&gt;llava_model_make_delta -->
<g id="edge54" class="edge">
<title>tqdm&#45;&gt;llava_model_make_delta</title><style>.edge>path:hover{stroke-width:8}</style>
<path fill="none" stroke="black" d="M688.03,-463.17C685.15,-461.85 682.26,-460.54 679.48,-459.31 641.22,-442.37 618.68,-455.94 592.48,-423.31 562.06,-385.42 560.76,-362.54 573.48,-315.65"/>
</g>
</g>
</svg>
