<?xml version="1.0" encoding="UTF-8" standalone="no"?>
<!DOCTYPE svg PUBLIC "-//W3C//DTD SVG 1.1//EN"
 "http://www.w3.org/Graphics/SVG/1.1/DTD/svg11.dtd">
<!-- Generated by graphviz version 13.1.0 (20250701.0955)
 -->
<!-- Title: G Pages: 1 -->
<svg width="1337pt" height="647pt"
 viewBox="0.00 0.00 1337.00 647.00" xmlns="http://www.w3.org/2000/svg" xmlns:xlink="http://www.w3.org/1999/xlink">
<g id="graph0" class="graph" transform="scale(1 1) rotate(0) translate(4 643.31)">
<title>G</title><style>.edge>path:hover{stroke-width:8}</style>
<polygon fill="white" stroke="none" points="-4,4 -4,-643.31 1333.07,-643.31 1333.07,4 -4,4"/>
<!-- huggingface_hub -->
<g id="node1" class="node">
<title>huggingface_hub</title><style>.edge>path:hover{stroke-width:8}</style>
<ellipse fill="#b6a853" stroke="black" cx="450.53" cy="-477.31" rx="52.96" ry="18"/>
<text xml:space="preserve" text-anchor="middle" x="450.53" y="-473.43" font-family="Helvetica,sans-Serif" font-size="10.00" fill="#000000">huggingface_hub</text>
</g>
<!-- llava_model_builder -->
<g id="node8" class="node">
<title>llava_model_builder</title><style>.edge>path:hover{stroke-width:8}</style>
<ellipse fill="#4fac2b" stroke="black" cx="510.53" cy="-219.61" rx="32" ry="29.52"/>
<text xml:space="preserve" text-anchor="middle" x="510.53" y="-226.98" font-family="Helvetica,sans-Serif" font-size="10.00" fill="#000000">llava.</text>
<text xml:space="preserve" text-anchor="middle" x="510.53" y="-215.73" font-family="Helvetica,sans-Serif" font-size="10.00" fill="#000000">model.</text>
<text xml:space="preserve" text-anchor="middle" x="510.53" y="-204.48" font-family="Helvetica,sans-Serif" font-size="10.00" fill="#000000">builder</text>
</g>
<!-- huggingface_hub&#45;&gt;llava_model_builder -->
<g id="edge1" class="edge">
<title>huggingface_hub&#45;&gt;llava_model_builder</title><style>.edge>path:hover{stroke-width:8}</style>
<path fill="none" stroke="black" d="M454.56,-459.13C464.05,-418.7 488,-316.64 501.29,-260.01"/>
<polygon fill="#b6a853" stroke="black" points="504.65,-260.99 503.53,-250.46 497.84,-259.39 504.65,-260.99"/>
</g>
<!-- llava -->
<g id="node2" class="node">
<title>llava</title><style>.edge>path:hover{stroke-width:8}</style>
<ellipse fill="#4bf906" stroke="black" cx="891.53" cy="-124.57" rx="27" ry="18"/>
<text xml:space="preserve" text-anchor="middle" x="891.53" y="-120.69" font-family="Helvetica,sans-Serif" font-size="10.00" fill="#000000">llava</text>
</g>
<!-- llava_constants -->
<g id="node3" class="node">
<title>llava_constants</title><style>.edge>path:hover{stroke-width:8}</style>
<ellipse fill="#53f910" stroke="black" cx="768.53" cy="-401.74" rx="41.54" ry="21.57"/>
<text xml:space="preserve" text-anchor="middle" x="768.53" y="-403.49" font-family="Helvetica,sans-Serif" font-size="10.00" fill="#000000">llava.</text>
<text xml:space="preserve" text-anchor="middle" x="768.53" y="-392.24" font-family="Helvetica,sans-Serif" font-size="10.00" fill="#000000">constants</text>
</g>
<!-- llava_mm_utils -->
<g id="node5" class="node">
<title>llava_mm_utils</title><style>.edge>path:hover{stroke-width:8}</style>
<ellipse fill="#46c115" stroke="black" cx="932.53" cy="-314.65" rx="46.74" ry="18"/>
<text xml:space="preserve" text-anchor="middle" x="932.53" y="-310.78" font-family="Helvetica,sans-Serif" font-size="10.00" fill="#000000">llava.mm_utils</text>
</g>
<!-- llava_constants&#45;&gt;llava_mm_utils -->
<g id="edge2" class="edge">
<title>llava_constants&#45;&gt;llava_mm_utils</title><style>.edge>path:hover{stroke-width:8}</style>
<path fill="none" stroke="black" d="M797.1,-385.92C824.35,-371.78 865.56,-350.4 895.36,-334.94"/>
<polygon fill="#53f910" stroke="black" points="896.77,-338.15 904.04,-330.44 893.55,-331.93 896.77,-338.15"/>
</g>
<!-- llava_constants&#45;&gt;llava_model_builder -->
<g id="edge3" class="edge">
<title>llava_constants&#45;&gt;llava_model_builder</title><style>.edge>path:hover{stroke-width:8}</style>
<path fill="none" stroke="black" d="M749.58,-382.08C732.37,-365.01 706.42,-338.95 684.53,-315.65"/>
<path fill="none" stroke="black" d="M684.53,-313.65C673.19,-301.58 674.19,-294.52 660.53,-285.13 620.23,-257.42 600.7,-270.15 556.53,-249.13 553.03,-247.46 549.47,-245.6 545.95,-243.63"/>
<polygon fill="#53f910" stroke="black" points="547.94,-240.74 537.54,-238.7 544.4,-246.78 547.94,-240.74"/>
</g>
<!-- llava_model_llava_arch -->
<g id="node10" class="node">
<title>llava_model_llava_arch</title><style>.edge>path:hover{stroke-width:8}</style>
<ellipse fill="#599640" stroke="black" cx="266.53" cy="-124.57" rx="42.6" ry="29.52"/>
<text xml:space="preserve" text-anchor="middle" x="266.53" y="-131.94" font-family="Helvetica,sans-Serif" font-size="10.00" fill="#ffffff">llava.</text>
<text xml:space="preserve" text-anchor="middle" x="266.53" y="-120.69" font-family="Helvetica,sans-Serif" font-size="10.00" fill="#ffffff">model.</text>
<text xml:space="preserve" text-anchor="middle" x="266.53" y="-109.44" font-family="Helvetica,sans-Serif" font-size="10.00" fill="#ffffff">llava_arch</text>
</g>
<!-- llava_constants&#45;&gt;llava_model_llava_arch -->
<g id="edge4" class="edge">
<title>llava_constants&#45;&gt;llava_model_llava_arch</title><style>.edge>path:hover{stroke-width:8}</style>
<path fill="none" stroke="black" d="M450.53,-218.61C421,-173 361.8,-148.77 318.5,-136.6"/>
<polygon fill="#53f910" stroke="black" points="319.61,-133.27 309.04,-134.07 317.81,-140.03 319.61,-133.27"/>
<path fill="none" stroke="black" d="M733.77,-389.71C674.25,-369.49 551.35,-321.79 469.53,-249.13 458.14,-239.02 458.81,-233.39 450.53,-220.61"/>
</g>
<!-- llava_serve_cli -->
<g id="node13" class="node">
<title>llava_serve_cli</title><style>.edge>path:hover{stroke-width:8}</style>
<ellipse fill="#3f6b2e" stroke="black" cx="872.53" cy="-29.52" rx="30.41" ry="29.52"/>
<text xml:space="preserve" text-anchor="middle" x="872.53" y="-36.9" font-family="Helvetica,sans-Serif" font-size="10.00" fill="#ffffff">llava.</text>
<text xml:space="preserve" text-anchor="middle" x="872.53" y="-25.65" font-family="Helvetica,sans-Serif" font-size="10.00" fill="#ffffff">serve.</text>
<text xml:space="preserve" text-anchor="middle" x="872.53" y="-14.4" font-family="Helvetica,sans-Serif" font-size="10.00" fill="#ffffff">cli</text>
</g>
<!-- llava_constants&#45;&gt;llava_serve_cli -->
<g id="edge5" class="edge">
<title>llava_constants&#45;&gt;llava_serve_cli</title><style>.edge>path:hover{stroke-width:8}</style>
<path fill="none" stroke="black" d="M792.85,-384.11C807.13,-373.64 824.96,-359.29 838.53,-344.17 859.38,-320.95 856.78,-309.29 876.53,-285.13 891.06,-267.37 898.87,-266.78 913.53,-249.13 923.27,-237.42 926.7,-234.68 932.53,-220.61"/>
</g>
<!-- llava_serve_controller -->
<g id="node14" class="node">
<title>llava_serve_controller</title><style>.edge>path:hover{stroke-width:8}</style>
<ellipse fill="#599640" stroke="black" cx="563.53" cy="-124.57" rx="39.42" ry="29.52"/>
<text xml:space="preserve" text-anchor="middle" x="563.53" y="-131.94" font-family="Helvetica,sans-Serif" font-size="10.00" fill="#ffffff">llava.</text>
<text xml:space="preserve" text-anchor="middle" x="563.53" y="-120.69" font-family="Helvetica,sans-Serif" font-size="10.00" fill="#ffffff">serve.</text>
<text xml:space="preserve" text-anchor="middle" x="563.53" y="-109.44" font-family="Helvetica,sans-Serif" font-size="10.00" fill="#ffffff">controller</text>
</g>
<!-- llava_constants&#45;&gt;llava_serve_controller -->
<g id="edge6" class="edge">
<title>llava_constants&#45;&gt;llava_serve_controller</title><style>.edge>path:hover{stroke-width:8}</style>
<path fill="none" stroke="black" d="M684.53,-218.61C678.58,-199.24 636.57,-169.82 603.7,-149.26"/>
<polygon fill="#53f910" stroke="black" points="605.92,-146.51 595.57,-144.24 602.24,-152.47 605.92,-146.51"/>
<path fill="none" stroke="black" d="M684.53,-313.65C656.22,-283.52 696.68,-260.14 684.53,-220.61"/>
</g>
<!-- llava_serve_gradio_web_server -->
<g id="node15" class="node">
<title>llava_serve_gradio_web_server</title><style>.edge>path:hover{stroke-width:8}</style>
<ellipse fill="#599640" stroke="black" cx="1043.53" cy="-124.57" rx="69.12" ry="29.52"/>
<text xml:space="preserve" text-anchor="middle" x="1043.53" y="-131.94" font-family="Helvetica,sans-Serif" font-size="10.00" fill="#ffffff">llava.</text>
<text xml:space="preserve" text-anchor="middle" x="1043.53" y="-120.69" font-family="Helvetica,sans-Serif" font-size="10.00" fill="#ffffff">serve.</text>
<text xml:space="preserve" text-anchor="middle" x="1043.53" y="-109.44" font-family="Helvetica,sans-Serif" font-size="10.00" fill="#ffffff">gradio_web_server</text>
</g>
<!-- llava_constants&#45;&gt;llava_serve_gradio_web_server -->
<g id="edge7" class="edge">
<title>llava_constants&#45;&gt;llava_serve_gradio_web_server</title><style>.edge>path:hover{stroke-width:8}</style>
<path fill="none" stroke="black" d="M801.15,-387.91C808.76,-385.16 816.88,-382.41 824.53,-380.17 896.17,-359.26 941.76,-402.32 988.53,-344.17 1004.98,-323.73 991.71,-311.18 988.53,-285.13 984.95,-255.8 954.85,-244.28 972.53,-220.61"/>
</g>
<!-- llava_serve_model_worker -->
<g id="node16" class="node">
<title>llava_serve_model_worker</title><style>.edge>path:hover{stroke-width:8}</style>
<ellipse fill="#4c8137" stroke="black" cx="496.53" cy="-29.52" rx="54.27" ry="29.52"/>
<text xml:space="preserve" text-anchor="middle" x="496.53" y="-36.9" font-family="Helvetica,sans-Serif" font-size="10.00" fill="#ffffff">llava.</text>
<text xml:space="preserve" text-anchor="middle" x="496.53" y="-25.65" font-family="Helvetica,sans-Serif" font-size="10.00" fill="#ffffff">serve.</text>
<text xml:space="preserve" text-anchor="middle" x="496.53" y="-14.4" font-family="Helvetica,sans-Serif" font-size="10.00" fill="#ffffff">model_worker</text>
</g>
<!-- llava_constants&#45;&gt;llava_serve_model_worker -->
<g id="edge8" class="edge">
<title>llava_constants&#45;&gt;llava_serve_model_worker</title><style>.edge>path:hover{stroke-width:8}</style>
<path fill="none" stroke="black" d="M450.53,-218.61C420.05,-190.67 437.37,-164.77 450.53,-125.57"/>
</g>
<!-- llava_serve_sglang_worker -->
<g id="node18" class="node">
<title>llava_serve_sglang_worker</title><style>.edge>path:hover{stroke-width:8}</style>
<ellipse fill="#599640" stroke="black" cx="676.53" cy="-124.57" rx="55.86" ry="29.52"/>
<text xml:space="preserve" text-anchor="middle" x="676.53" y="-131.94" font-family="Helvetica,sans-Serif" font-size="10.00" fill="#ffffff">llava.</text>
<text xml:space="preserve" text-anchor="middle" x="676.53" y="-120.69" font-family="Helvetica,sans-Serif" font-size="10.00" fill="#ffffff">serve.</text>
<text xml:space="preserve" text-anchor="middle" x="676.53" y="-109.44" font-family="Helvetica,sans-Serif" font-size="10.00" fill="#ffffff">sglang_worker</text>
</g>
<!-- llava_constants&#45;&gt;llava_serve_sglang_worker -->
<g id="edge9" class="edge">
<title>llava_constants&#45;&gt;llava_serve_sglang_worker</title><style>.edge>path:hover{stroke-width:8}</style>
<path fill="none" stroke="black" d="M684.53,-218.61C679.31,-201.61 677.09,-182.1 676.27,-165.34"/>
<polygon fill="#53f910" stroke="black" points="679.78,-165.64 675.95,-155.76 672.78,-165.88 679.78,-165.64"/>
</g>
<!-- llava_utils -->
<g id="node20" class="node">
<title>llava_utils</title><style>.edge>path:hover{stroke-width:8}</style>
<ellipse fill="#45d60b" stroke="black" cx="795.53" cy="-314.65" rx="33.87" ry="18"/>
<text xml:space="preserve" text-anchor="middle" x="795.53" y="-310.78" font-family="Helvetica,sans-Serif" font-size="10.00" fill="#000000">llava.utils</text>
</g>
<!-- llava_constants&#45;&gt;llava_utils -->
<g id="edge10" class="edge">
<title>llava_constants&#45;&gt;llava_utils</title><style>.edge>path:hover{stroke-width:8}</style>
<path fill="none" stroke="black" d="M775.07,-380.14C778.55,-369.18 782.87,-355.55 786.65,-343.65"/>
<polygon fill="#53f910" stroke="black" points="789.91,-344.94 789.6,-334.35 783.24,-342.82 789.91,-344.94"/>
</g>
<!-- llava_conversation -->
<g id="node4" class="node">
<title>llava_conversation</title><style>.edge>path:hover{stroke-width:8}</style>
<ellipse fill="#56d024" stroke="black" cx="1227.53" cy="-314.65" rx="50.56" ry="21.57"/>
<text xml:space="preserve" text-anchor="middle" x="1227.53" y="-316.4" font-family="Helvetica,sans-Serif" font-size="10.00" fill="#000000">llava.</text>
<text xml:space="preserve" text-anchor="middle" x="1227.53" y="-305.15" font-family="Helvetica,sans-Serif" font-size="10.00" fill="#000000">conversation</text>
</g>
<!-- llava_conversation&#45;&gt;llava_serve_cli -->
<g id="edge11" class="edge">
<title>llava_conversation&#45;&gt;llava_serve_cli</title><style>.edge>path:hover{stroke-width:8}</style>
<path fill="none" stroke="black" d="M1268.53,-218.61C1262.39,-174.36 1330.97,-162.95 1306.53,-125.57"/>
<path fill="none" stroke="black" d="M1306.53,-123.57C1298.2,-110.82 1300.37,-103.25 1287.53,-95.04 1226.1,-55.78 1007.39,-38.49 914.62,-32.8"/>
<polygon fill="#56d024" stroke="black" points="914.87,-29.31 904.68,-32.21 914.46,-36.29 914.87,-29.31"/>
</g>
<!-- llava_conversation&#45;&gt;llava_serve_gradio_web_server -->
<g id="edge12" class="edge">
<title>llava_conversation&#45;&gt;llava_serve_gradio_web_server</title><style>.edge>path:hover{stroke-width:8}</style>
<path fill="none" stroke="black" d="M1268.53,-218.61C1266.15,-201.45 1174.62,-168.14 1109.05,-146.38"/>
<polygon fill="#56d024" stroke="black" points="1110.39,-143.13 1099.8,-143.33 1108.2,-149.78 1110.39,-143.13"/>
<path fill="none" stroke="black" d="M1243.65,-293.93C1256.67,-275.74 1272.27,-247.53 1268.53,-220.61"/>
</g>
<!-- llava_serve_test_message -->
<g id="node19" class="node">
<title>llava_serve_test_message</title><style>.edge>path:hover{stroke-width:8}</style>
<ellipse fill="#61a446" stroke="black" cx="1223.53" cy="-124.57" rx="54.8" ry="29.52"/>
<text xml:space="preserve" text-anchor="middle" x="1223.53" y="-131.94" font-family="Helvetica,sans-Serif" font-size="10.00" fill="#000000">llava.</text>
<text xml:space="preserve" text-anchor="middle" x="1223.53" y="-120.69" font-family="Helvetica,sans-Serif" font-size="10.00" fill="#000000">serve.</text>
<text xml:space="preserve" text-anchor="middle" x="1223.53" y="-109.44" font-family="Helvetica,sans-Serif" font-size="10.00" fill="#000000">test_message</text>
</g>
<!-- llava_conversation&#45;&gt;llava_serve_test_message -->
<g id="edge13" class="edge">
<title>llava_conversation&#45;&gt;llava_serve_test_message</title><style>.edge>path:hover{stroke-width:8}</style>
<path fill="none" stroke="black" d="M1268.53,-218.61C1265.8,-198.89 1256.98,-178.78 1247.86,-162.33"/>
<polygon fill="#56d024" stroke="black" points="1251.01,-160.78 1242.96,-153.9 1244.96,-164.3 1251.01,-160.78"/>
</g>
<!-- llava_mm_utils&#45;&gt;llava_model_llava_arch -->
<g id="edge14" class="edge">
<title>llava_mm_utils&#45;&gt;llava_model_llava_arch</title><style>.edge>path:hover{stroke-width:8}</style>
<path fill="none" stroke="black" d="M899.21,-301.71C833.34,-278.36 681.62,-225.83 551.53,-190.09 470.82,-167.91 375.75,-147.52 318.37,-135.82"/>
<polygon fill="#46c115" stroke="black" points="319.39,-132.46 308.89,-133.9 318,-139.32 319.39,-132.46"/>
</g>
<!-- llava_mm_utils&#45;&gt;llava_serve_cli -->
<g id="edge15" class="edge">
<title>llava_mm_utils&#45;&gt;llava_serve_cli</title><style>.edge>path:hover{stroke-width:8}</style>
<path fill="none" stroke="black" d="M928.73,-296.42C925.32,-277.15 922.27,-245.38 932.53,-220.61"/>
</g>
<!-- llava_mm_utils&#45;&gt;llava_serve_model_worker -->
<g id="edge16" class="edge">
<title>llava_mm_utils&#45;&gt;llava_serve_model_worker</title><style>.edge>path:hover{stroke-width:8}</style>
<path fill="none" stroke="black" d="M760.53,-218.61C732.62,-188.1 780.86,-161.58 760.53,-125.57"/>
</g>
<!-- llava_mm_utils&#45;&gt;llava_serve_sglang_worker -->
<g id="edge17" class="edge">
<title>llava_mm_utils&#45;&gt;llava_serve_sglang_worker</title><style>.edge>path:hover{stroke-width:8}</style>
<path fill="none" stroke="black" d="M760.53,-218.61C749.35,-206.39 747.51,-202.49 736.53,-190.09 727.67,-180.07 717.87,-169.38 708.8,-159.63"/>
<polygon fill="#46c115" stroke="black" points="711.48,-157.37 702.09,-152.46 706.37,-162.15 711.48,-157.37"/>
<path fill="none" stroke="black" d="M896.01,-302.98C864.45,-292.58 818.68,-274.62 784.53,-249.13 771.26,-239.22 771.72,-232.83 760.53,-220.61"/>
</g>
<!-- llava_model -->
<g id="node6" class="node">
<title>llava_model</title><style>.edge>path:hover{stroke-width:8}</style>
<ellipse fill="#53f910" stroke="black" cx="865.53" cy="-219.61" rx="38.76" ry="18"/>
<text xml:space="preserve" text-anchor="middle" x="865.53" y="-215.73" font-family="Helvetica,sans-Serif" font-size="10.00" fill="#000000">llava.model</text>
</g>
<!-- llava_model&#45;&gt;llava -->
<g id="edge18" class="edge">
<title>llava_model&#45;&gt;llava</title><style>.edge>path:hover{stroke-width:8}</style>
<path fill="none" stroke="black" d="M870.3,-201.54C874.08,-188.03 879.43,-168.9 883.81,-153.21"/>
<polygon fill="#53f910" stroke="black" points="887.07,-154.55 886.39,-143.98 880.33,-152.67 887.07,-154.55"/>
</g>
<!-- llava_model&#45;&gt;llava_serve_cli -->
<g id="edge19" class="edge">
<title>llava_model&#45;&gt;llava_serve_cli</title><style>.edge>path:hover{stroke-width:8}</style>
<path fill="none" stroke="black" d="M889.83,-205.31C914.95,-189.56 950.05,-160.94 946.53,-125.57"/>
<path fill="none" stroke="black" d="M946.53,-123.57C943.8,-96.08 923.71,-71.91 905.15,-55.1"/>
<polygon fill="#53f910" stroke="black" points="907.53,-52.53 897.67,-48.66 902.97,-57.84 907.53,-52.53"/>
</g>
<!-- llava_model&#45;&gt;llava_serve_model_worker -->
<g id="edge20" class="edge">
<title>llava_model&#45;&gt;llava_serve_model_worker</title><style>.edge>path:hover{stroke-width:8}</style>
<path fill="none" stroke="black" d="M857.92,-201.62C844.89,-174.6 815.71,-122.14 774.53,-95.04 710.38,-52.82 621.99,-38.08 562.24,-33.01"/>
<polygon fill="#53f910" stroke="black" points="562.8,-29.54 552.56,-32.26 562.26,-36.52 562.8,-29.54"/>
</g>
<!-- llava_model_apply_delta -->
<g id="node7" class="node">
<title>llava_model_apply_delta</title><style>.edge>path:hover{stroke-width:8}</style>
<ellipse fill="#61a446" stroke="black" cx="78.53" cy="-219.61" rx="46.32" ry="29.52"/>
<text xml:space="preserve" text-anchor="middle" x="78.53" y="-226.98" font-family="Helvetica,sans-Serif" font-size="10.00" fill="#000000">llava.</text>
<text xml:space="preserve" text-anchor="middle" x="78.53" y="-215.73" font-family="Helvetica,sans-Serif" font-size="10.00" fill="#000000">model.</text>
<text xml:space="preserve" text-anchor="middle" x="78.53" y="-204.48" font-family="Helvetica,sans-Serif" font-size="10.00" fill="#000000">apply_delta</text>
</g>
<!-- llava_model_builder&#45;&gt;llava_serve_cli -->
<g id="edge21" class="edge">
<title>llava_model_builder&#45;&gt;llava_serve_cli</title><style>.edge>path:hover{stroke-width:8}</style>
<path fill="none" stroke="black" d="M496.53,-123.57C503.54,-110.04 502.8,-103.4 515.53,-95.04 567.02,-61.24 748.23,-41.43 830.88,-33.96"/>
<polygon fill="#4fac2b" stroke="black" points="830.94,-37.47 840.59,-33.1 830.32,-30.49 830.94,-37.47"/>
</g>
<!-- llava_model_builder&#45;&gt;llava_serve_model_worker -->
<g id="edge22" class="edge">
<title>llava_model_builder&#45;&gt;llava_serve_model_worker</title><style>.edge>path:hover{stroke-width:8}</style>
<path fill="none" stroke="black" d="M498.33,-191.94C491.33,-172.53 485.86,-146.16 496.53,-125.57"/>
<path fill="none" stroke="black" d="M496.53,-123.57C504.87,-107.49 505.9,-87.64 504.43,-70.42"/>
<polygon fill="#4fac2b" stroke="black" points="507.91,-70.01 503.25,-60.49 500.96,-70.83 507.91,-70.01"/>
</g>
<!-- llava_model_consolidate -->
<g id="node9" class="node">
<title>llava_model_consolidate</title><style>.edge>path:hover{stroke-width:8}</style>
<ellipse fill="#5d9d43" stroke="black" cx="338.53" cy="-219.61" rx="46.32" ry="29.52"/>
<text xml:space="preserve" text-anchor="middle" x="338.53" y="-226.98" font-family="Helvetica,sans-Serif" font-size="10.00" fill="#000000">llava.</text>
<text xml:space="preserve" text-anchor="middle" x="338.53" y="-215.73" font-family="Helvetica,sans-Serif" font-size="10.00" fill="#000000">model.</text>
<text xml:space="preserve" text-anchor="middle" x="338.53" y="-204.48" font-family="Helvetica,sans-Serif" font-size="10.00" fill="#000000">consolidate</text>
</g>
<!-- llava_model_make_delta -->
<g id="node11" class="node">
<title>llava_model_make_delta</title><style>.edge>path:hover{stroke-width:8}</style>
<ellipse fill="#599640" stroke="black" cx="227.53" cy="-219.61" rx="46.85" ry="29.52"/>
<text xml:space="preserve" text-anchor="middle" x="227.53" y="-226.98" font-family="Helvetica,sans-Serif" font-size="10.00" fill="#ffffff">llava.</text>
<text xml:space="preserve" text-anchor="middle" x="227.53" y="-215.73" font-family="Helvetica,sans-Serif" font-size="10.00" fill="#ffffff">model.</text>
<text xml:space="preserve" text-anchor="middle" x="227.53" y="-204.48" font-family="Helvetica,sans-Serif" font-size="10.00" fill="#ffffff">make_delta</text>
</g>
<!-- llava_model_utils -->
<g id="node12" class="node">
<title>llava_model_utils</title><style>.edge>path:hover{stroke-width:8}</style>
<ellipse fill="#65ce3b" stroke="black" cx="282.53" cy="-314.65" rx="32" ry="29.52"/>
<text xml:space="preserve" text-anchor="middle" x="282.53" y="-322.03" font-family="Helvetica,sans-Serif" font-size="10.00" fill="#000000">llava.</text>
<text xml:space="preserve" text-anchor="middle" x="282.53" y="-310.78" font-family="Helvetica,sans-Serif" font-size="10.00" fill="#000000">model.</text>
<text xml:space="preserve" text-anchor="middle" x="282.53" y="-299.53" font-family="Helvetica,sans-Serif" font-size="10.00" fill="#000000">utils</text>
</g>
<!-- llava_model_utils&#45;&gt;llava_model_consolidate -->
<g id="edge23" class="edge">
<title>llava_model_utils&#45;&gt;llava_model_consolidate</title><style>.edge>path:hover{stroke-width:8}</style>
<path fill="none" stroke="black" d="M297.84,-288.23C303.58,-278.69 310.22,-267.64 316.46,-257.28"/>
<polygon fill="#65ce3b" stroke="black" points="319.33,-259.3 321.49,-248.93 313.33,-255.69 319.33,-259.3"/>
</g>
<!-- llava_model_utils&#45;&gt;llava_model_make_delta -->
<g id="edge24" class="edge">
<title>llava_model_utils&#45;&gt;llava_model_make_delta</title><style>.edge>path:hover{stroke-width:8}</style>
<path fill="none" stroke="black" d="M267.5,-288.23C261.86,-278.69 255.34,-267.64 249.21,-257.28"/>
<polygon fill="#65ce3b" stroke="black" points="252.38,-255.76 244.28,-248.93 246.35,-259.32 252.38,-255.76"/>
</g>
<!-- llava_serve_register_worker -->
<g id="node17" class="node">
<title>llava_serve_register_worker</title><style>.edge>path:hover{stroke-width:8}</style>
<ellipse fill="#6ab34c" stroke="black" cx="1059.53" cy="-219.61" rx="58.51" ry="29.52"/>
<text xml:space="preserve" text-anchor="middle" x="1059.53" y="-226.98" font-family="Helvetica,sans-Serif" font-size="10.00" fill="#000000">llava.</text>
<text xml:space="preserve" text-anchor="middle" x="1059.53" y="-215.73" font-family="Helvetica,sans-Serif" font-size="10.00" fill="#000000">serve.</text>
<text xml:space="preserve" text-anchor="middle" x="1059.53" y="-204.48" font-family="Helvetica,sans-Serif" font-size="10.00" fill="#000000">register_worker</text>
</g>
<!-- llava_utils&#45;&gt;llava_serve_cli -->
<g id="edge25" class="edge">
<title>llava_utils&#45;&gt;llava_serve_cli</title><style>.edge>path:hover{stroke-width:8}</style>
<path fill="none" stroke="black" d="M816.88,-300.59C825.14,-295.64 834.71,-290.01 843.53,-285.13 886.28,-261.47 913.83,-265.74 932.53,-220.61"/>
<path fill="none" stroke="black" d="M932.53,-218.61C948.54,-179.98 950.67,-167.18 946.53,-125.57"/>
</g>
<!-- llava_utils&#45;&gt;llava_serve_controller -->
<g id="edge26" class="edge">
<title>llava_utils&#45;&gt;llava_serve_controller</title><style>.edge>path:hover{stroke-width:8}</style>
<path fill="none" stroke="black" d="M722.53,-218.61C713.28,-204.86 711.9,-199.87 698.53,-190.09 664.76,-165.37 648.95,-172.82 611.53,-154.09 608.82,-152.73 606.06,-151.28 603.29,-149.78"/>
<polygon fill="#45d60b" stroke="black" points="605.13,-146.79 594.7,-144.94 601.69,-152.89 605.13,-146.79"/>
<path fill="none" stroke="black" d="M781.87,-297.72C766.61,-279.61 741.56,-248.88 722.53,-220.61"/>
</g>
<!-- llava_utils&#45;&gt;llava_serve_gradio_web_server -->
<g id="edge27" class="edge">
<title>llava_utils&#45;&gt;llava_serve_gradio_web_server</title><style>.edge>path:hover{stroke-width:8}</style>
<path fill="none" stroke="black" d="M822.97,-303.54C860.56,-289.42 925.79,-263.87 946.53,-249.13 960.52,-239.2 962.27,-234.35 972.53,-220.61"/>
<path fill="none" stroke="black" d="M972.53,-218.61C981.65,-206.41 982.52,-202.37 991.53,-190.09 998.43,-180.69 1006.16,-170.78 1013.52,-161.62"/>
<polygon fill="#45d60b" stroke="black" points="1016.17,-163.91 1019.75,-153.94 1010.73,-159.5 1016.17,-163.91"/>
</g>
<!-- llava_utils&#45;&gt;llava_serve_model_worker -->
<g id="edge28" class="edge">
<title>llava_utils&#45;&gt;llava_serve_model_worker</title><style>.edge>path:hover{stroke-width:8}</style>
<path fill="none" stroke="black" d="M760.53,-123.57C753.04,-110.3 753.93,-103.9 741.53,-95.04 688.35,-57.05 614.36,-41.42 561.64,-35"/>
<polygon fill="#45d60b" stroke="black" points="562.23,-31.54 551.9,-33.9 561.44,-38.5 562.23,-31.54"/>
<path fill="none" stroke="black" d="M722.53,-218.61C697.59,-181.55 782.49,-164.46 760.53,-125.57"/>
</g>
<!-- llava_utils&#45;&gt;llava_serve_sglang_worker -->
<g id="edge29" class="edge">
<title>llava_utils&#45;&gt;llava_serve_sglang_worker</title><style>.edge>path:hover{stroke-width:8}</style>
<path fill="none" stroke="black" d="M722.53,-218.61C711.12,-201.65 700.79,-181.45 692.82,-164.21"/>
<polygon fill="#45d60b" stroke="black" points="696.1,-162.97 688.8,-155.29 689.72,-165.85 696.1,-162.97"/>
</g>
<!-- numpy -->
<g id="node21" class="node">
<title>numpy</title><style>.edge>path:hover{stroke-width:8}</style>
<ellipse fill="#26d98c" stroke="black" cx="570.53" cy="-621.31" rx="27" ry="18"/>
<text xml:space="preserve" text-anchor="middle" x="570.53" y="-617.43" font-family="Helvetica,sans-Serif" font-size="10.00" fill="#000000">numpy</text>
</g>
<!-- numpy&#45;&gt;llava_serve_controller -->
<g id="edge30" class="edge">
<title>numpy&#45;&gt;llava_serve_controller</title><style>.edge>path:hover{stroke-width:8}</style>
<path fill="none" stroke="black" d="M570.53,-218.61C566.6,-201.59 564.74,-182.4 563.9,-165.89"/>
<polygon fill="#26d98c" stroke="black" points="567.4,-165.78 563.52,-155.92 560.41,-166.05 567.4,-165.78"/>
<path fill="none" stroke="black" d="M570.53,-548.31C626.73,-413.94 603.3,-362.52 570.53,-220.61"/>
</g>
<!-- PIL_Image -->
<g id="node23" class="node">
<title>PIL_Image</title><style>.edge>path:hover{stroke-width:8}</style>
<ellipse fill="#c43131" stroke="black" cx="1007.53" cy="-477.31" rx="36.09" ry="18"/>
<text xml:space="preserve" text-anchor="middle" x="1007.53" y="-473.43" font-family="Helvetica,sans-Serif" font-size="10.00" fill="#ffffff">PIL.Image</text>
</g>
<!-- numpy&#45;&gt;PIL_Image -->
<g id="edge31" class="edge">
<title>numpy&#45;&gt;PIL_Image</title><style>.edge>path:hover{stroke-width:8}</style>
<path fill="none" stroke="black" d="M570.53,-548.31C604.45,-467.21 877.31,-516.87 962.53,-495.31 964.97,-494.69 967.45,-493.99 969.94,-493.22"/>
<polygon fill="#26d98c" stroke="black" points="970.94,-496.58 979.29,-490.05 968.7,-489.94 970.94,-496.58"/>
</g>
<!-- torch -->
<g id="node25" class="node">
<title>torch</title><style>.edge>path:hover{stroke-width:8}</style>
<polygon fill="blue" stroke="black" points="379.53,-495.31 325.53,-495.31 325.53,-459.31 379.53,-459.31 379.53,-495.31"/>
<text xml:space="preserve" text-anchor="middle" x="352.53" y="-473.43" font-family="Helvetica,sans-Serif" font-size="10.00" fill="white">torch</text>
</g>
<!-- numpy&#45;&gt;torch -->
<g id="edge32" class="edge">
<title>numpy&#45;&gt;torch</title><style>.edge>path:hover{stroke-width:8}</style>
<path fill="none" stroke="black" d="M570.53,-548.31C601.74,-473.69 477.91,-521.01 390.58,-495.36"/>
<polygon fill="#26d98c" stroke="black" points="391.89,-492.11 381.29,-492.24 389.66,-498.74 391.89,-492.11"/>
<path fill="none" stroke="black" d="M566.96,-603.18C564.72,-588.55 563.45,-567.24 570.53,-550.31"/>
</g>
<!-- PIL -->
<g id="node22" class="node">
<title>PIL</title><style>.edge>path:hover{stroke-width:8}</style>
<ellipse fill="#e61919" stroke="black" cx="926.53" cy="-477.31" rx="27" ry="18"/>
<text xml:space="preserve" text-anchor="middle" x="926.53" y="-473.43" font-family="Helvetica,sans-Serif" font-size="10.00" fill="#ffffff">PIL</text>
</g>
<!-- PIL&#45;&gt;llava_conversation -->
<g id="edge33" class="edge">
<title>PIL&#45;&gt;llava_conversation</title><style>.edge>path:hover{stroke-width:8}</style>
<path fill="none" stroke="black" d="M947.1,-465.47C952.05,-463.18 957.4,-460.95 962.53,-459.31 1094.22,-417.05 1182.86,-511.31 1268.53,-402.74"/>
<path fill="none" stroke="black" d="M1268.53,-400.74C1282.33,-383.26 1269.95,-360.39 1255.29,-342.76"/>
<polygon fill="#e61919" stroke="black" points="1258.28,-340.85 1249.02,-335.7 1253.05,-345.5 1258.28,-340.85"/>
</g>
<!-- PIL&#45;&gt;llava_mm_utils -->
<g id="edge34" class="edge">
<title>PIL&#45;&gt;llava_mm_utils</title><style>.edge>path:hover{stroke-width:8}</style>
<path fill="none" stroke="black" d="M945.04,-463.83C962.26,-450.52 984.68,-427.91 980.53,-402.74"/>
<path fill="none" stroke="black" d="M980.53,-400.74C976.94,-378.98 964.62,-357.38 953.36,-341.38"/>
<polygon fill="#e61919" stroke="black" points="956.23,-339.38 947.47,-333.41 950.6,-343.54 956.23,-339.38"/>
</g>
<!-- PIL&#45;&gt;llava_serve_cli -->
<g id="edge35" class="edge">
<title>PIL&#45;&gt;llava_serve_cli</title><style>.edge>path:hover{stroke-width:8}</style>
<path fill="none" stroke="black" d="M1306.53,-313.65C1315.49,-230.54 1352.27,-195.54 1306.53,-125.57"/>
<path fill="none" stroke="black" d="M1268.53,-400.74C1294.19,-368.23 1298.27,-356.24 1306.53,-315.65"/>
</g>
<!-- PIL_Image&#45;&gt;llava_conversation -->
<g id="edge36" class="edge">
<title>PIL_Image&#45;&gt;llava_conversation</title><style>.edge>path:hover{stroke-width:8}</style>
<path fill="none" stroke="black" d="M1306.53,-400.74C1318.58,-375.73 1294.8,-353 1270.26,-337.34"/>
<polygon fill="#c43131" stroke="black" points="1272.19,-334.42 1261.82,-332.27 1268.59,-340.42 1272.19,-334.42"/>
<path fill="none" stroke="black" d="M1043.37,-474.01C1117.69,-468.31 1283.6,-450.36 1306.53,-402.74"/>
</g>
<!-- PIL_Image&#45;&gt;llava_mm_utils -->
<g id="edge37" class="edge">
<title>PIL_Image&#45;&gt;llava_mm_utils</title><style>.edge>path:hover{stroke-width:8}</style>
<path fill="none" stroke="black" d="M999.32,-459.56C992.67,-444.96 983.88,-423.01 980.53,-402.74"/>
</g>
<!-- PIL_Image&#45;&gt;llava_serve_cli -->
<g id="edge38" class="edge">
<title>PIL_Image&#45;&gt;llava_serve_cli</title><style>.edge>path:hover{stroke-width:8}</style>
<path fill="none" stroke="black" d="M1306.53,-400.74C1322.94,-366.67 1298.98,-352.71 1306.53,-315.65"/>
</g>
<!-- requests -->
<g id="node24" class="node">
<title>requests</title><style>.edge>path:hover{stroke-width:8}</style>
<ellipse fill="#0691f9" stroke="black" cx="849.53" cy="-477.31" rx="31.66" ry="18"/>
<text xml:space="preserve" text-anchor="middle" x="849.53" y="-473.43" font-family="Helvetica,sans-Serif" font-size="10.00" fill="#ffffff">requests</text>
</g>
<!-- requests&#45;&gt;llava_serve_cli -->
<g id="edge39" class="edge">
<title>requests&#45;&gt;llava_serve_cli</title><style>.edge>path:hover{stroke-width:8}</style>
<path fill="none" stroke="black" d="M1146.53,-218.61C1143.4,-162.67 1160.07,-135.72 1121.53,-95.04 1093.27,-65.21 976.95,-44.93 913.79,-35.88"/>
<polygon fill="#0691f9" stroke="black" points="914.54,-32.45 904.15,-34.53 913.57,-39.38 914.54,-32.45"/>
</g>
<!-- requests&#45;&gt;llava_serve_controller -->
<g id="edge40" class="edge">
<title>requests&#45;&gt;llava_serve_controller</title><style>.edge>path:hover{stroke-width:8}</style>
<path fill="none" stroke="black" d="M646.53,-313.65C639.29,-274.55 607.34,-281.71 584.53,-249.13 576.43,-237.56 573.71,-234.37 570.53,-220.61"/>
<path fill="none" stroke="black" d="M646.53,-400.74C613.31,-382.67 653.42,-352.84 646.53,-315.65"/>
</g>
<!-- requests&#45;&gt;llava_serve_gradio_web_server -->
<g id="edge41" class="edge">
<title>requests&#45;&gt;llava_serve_gradio_web_server</title><style>.edge>path:hover{stroke-width:8}</style>
<path fill="none" stroke="black" d="M1146.53,-218.61C1144.94,-190.17 1122.86,-168.15 1099.55,-152.69"/>
<polygon fill="#0691f9" stroke="black" points="1101.51,-149.8 1091.18,-147.48 1097.81,-155.74 1101.51,-149.8"/>
<path fill="none" stroke="black" d="M1146.53,-313.65C1149.13,-272.38 1148.84,-261.9 1146.53,-220.61"/>
</g>
<!-- requests&#45;&gt;llava_serve_model_worker -->
<g id="edge42" class="edge">
<title>requests&#45;&gt;llava_serve_model_worker</title><style>.edge>path:hover{stroke-width:8}</style>
<path fill="none" stroke="black" d="M450.53,-123.57C456.9,-104.61 466.39,-84.6 475.1,-68.02"/>
<polygon fill="#0691f9" stroke="black" points="478.02,-69.98 479.67,-59.51 471.86,-66.67 478.02,-69.98"/>
<path fill="none" stroke="black" d="M646.53,-400.74C591.18,-370.64 567.04,-381.84 516.53,-344.17 472.27,-311.17 455.46,-301 436.53,-249.13 417.59,-197.21 432.94,-177.96 450.53,-125.57"/>
<path fill="none" stroke="black" d="M819.92,-470.32C778.46,-460.93 701.98,-439.86 646.53,-402.74"/>
</g>
<!-- requests&#45;&gt;llava_serve_register_worker -->
<g id="edge43" class="edge">
<title>requests&#45;&gt;llava_serve_register_worker</title><style>.edge>path:hover{stroke-width:8}</style>
<path fill="none" stroke="black" d="M873.98,-465.31C879.37,-463.14 885.09,-461 890.53,-459.31 963.87,-436.5 994.08,-463.48 1059.53,-423.31 1111.96,-391.13 1159.63,-375.76 1146.53,-315.65"/>
<path fill="none" stroke="black" d="M1146.53,-313.65C1148.22,-286.93 1128.84,-264.67 1107.96,-248.63"/>
<polygon fill="#0691f9" stroke="black" points="1110.04,-245.81 1099.88,-242.81 1105.95,-251.49 1110.04,-245.81"/>
</g>
<!-- requests&#45;&gt;llava_serve_sglang_worker -->
<g id="edge44" class="edge">
<title>requests&#45;&gt;llava_serve_sglang_worker</title><style>.edge>path:hover{stroke-width:8}</style>
<path fill="none" stroke="black" d="M646.53,-313.65C636.66,-262.38 650.38,-202.79 662.35,-164.66"/>
<polygon fill="#0691f9" stroke="black" points="665.57,-166.06 665.35,-155.46 658.92,-163.89 665.57,-166.06"/>
</g>
<!-- requests&#45;&gt;llava_serve_test_message -->
<g id="edge45" class="edge">
<title>requests&#45;&gt;llava_serve_test_message</title><style>.edge>path:hover{stroke-width:8}</style>
<path fill="none" stroke="black" d="M1146.53,-218.61C1145.12,-193.37 1162.11,-171.27 1180.49,-154.95"/>
<polygon fill="#0691f9" stroke="black" points="1182.37,-157.94 1187.8,-148.84 1177.88,-152.57 1182.37,-157.94"/>
</g>
<!-- requests&#45;&gt;llava_utils -->
<g id="edge46" class="edge">
<title>requests&#45;&gt;llava_utils</title><style>.edge>path:hover{stroke-width:8}</style>
<path fill="none" stroke="black" d="M853.95,-458.99C858.12,-439.22 862.4,-406.25 852.53,-380.17 846.36,-363.86 833.97,-349.02 822.32,-337.69"/>
<polygon fill="#0691f9" stroke="black" points="824.9,-335.31 815.18,-331.12 820.17,-340.46 824.9,-335.31"/>
</g>
<!-- torch&#45;&gt;llava_mm_utils -->
<g id="edge47" class="edge">
<title>torch&#45;&gt;llava_mm_utils</title><style>.edge>path:hover{stroke-width:8}</style>
<path fill="none" stroke="black" d="M838.53,-400.74C861.82,-380.31 887.91,-356.63 906.68,-339.45"/>
<polygon fill="blue" stroke="black" points="908.89,-342.17 913.89,-332.84 904.16,-337.01 908.89,-342.17"/>
</g>
<!-- torch&#45;&gt;llava_model_apply_delta -->
<g id="edge48" class="edge">
<title>torch&#45;&gt;llava_model_apply_delta</title><style>.edge>path:hover{stroke-width:8}</style>
<path fill="none" stroke="black" d="M190.53,-400.74C163.8,-369.11 168.33,-353.94 152.53,-315.65"/>
<path fill="none" stroke="black" d="M152.53,-313.65C147.15,-300.6 146.54,-296.76 138.53,-285.13 130.82,-273.92 121.22,-262.71 111.98,-252.86"/>
<polygon fill="blue" stroke="black" points="114.52,-250.44 105.06,-245.67 109.48,-255.3 114.52,-250.44"/>
</g>
<!-- torch&#45;&gt;llava_model_builder -->
<g id="edge49" class="edge">
<title>torch&#45;&gt;llava_model_builder</title><style>.edge>path:hover{stroke-width:8}</style>
<path fill="none" stroke="black" d="M356.53,-313.65C392.14,-282.65 439.38,-255.82 472.11,-239.05"/>
<polygon fill="blue" stroke="black" points="473.49,-242.27 480.84,-234.64 470.34,-236.02 473.49,-242.27"/>
</g>
<!-- torch&#45;&gt;llava_model_consolidate -->
<g id="edge50" class="edge">
<title>torch&#45;&gt;llava_model_consolidate</title><style>.edge>path:hover{stroke-width:8}</style>
<path fill="none" stroke="black" d="M190.53,-400.74C149.07,-351.68 269.02,-378.15 323.53,-344.17 339.98,-333.92 341.91,-328.38 356.53,-315.65"/>
<path fill="none" stroke="black" d="M356.53,-313.65C372.2,-300.01 368.03,-277.18 359.78,-257.55"/>
<polygon fill="blue" stroke="black" points="363.06,-256.31 355.67,-248.72 356.72,-259.26 363.06,-256.31"/>
</g>
<!-- torch&#45;&gt;llava_model_llava_arch -->
<g id="edge51" class="edge">
<title>torch&#45;&gt;llava_model_llava_arch</title><style>.edge>path:hover{stroke-width:8}</style>
<path fill="none" stroke="black" d="M152.53,-313.65C131.34,-262.29 141.86,-237.06 171.53,-190.09 183.3,-171.46 202.62,-156.88 220.77,-146.34"/>
<polygon fill="blue" stroke="black" points="222.27,-149.51 229.35,-141.63 218.9,-143.37 222.27,-149.51"/>
</g>
<!-- torch&#45;&gt;llava_model_make_delta -->
<g id="edge52" class="edge">
<title>torch&#45;&gt;llava_model_make_delta</title><style>.edge>path:hover{stroke-width:8}</style>
<path fill="none" stroke="black" d="M190.53,-400.74C166.12,-371.86 179.61,-351.86 190.53,-315.65"/>
</g>
<!-- torch&#45;&gt;llava_serve_cli -->
<g id="edge53" class="edge">
<title>torch&#45;&gt;llava_serve_cli</title><style>.edge>path:hover{stroke-width:8}</style>
<path fill="none" stroke="black" d="M379.65,-462.19C382.59,-461.06 385.59,-460.06 388.53,-459.31 453.88,-442.6 948.27,-472.4 994.53,-423.31 1161.62,-246 820.18,-252.4 817.53,-249.13 773.45,-194.8 817.76,-109.73 848.51,-63.36"/>
<polygon fill="blue" stroke="black" points="851.24,-65.57 853.97,-55.33 845.45,-61.63 851.24,-65.57"/>
</g>
<!-- torch&#45;&gt;llava_serve_model_worker -->
<g id="edge54" class="edge">
<title>torch&#45;&gt;llava_serve_model_worker</title><style>.edge>path:hover{stroke-width:8}</style>
<path fill="none" stroke="black" d="M190.53,-400.74C113.42,-309.49 -39.38,-291.66 23.53,-190.09 67.74,-118.71 315.97,-63.98 434.07,-41.58"/>
<polygon fill="blue" stroke="black" points="434.41,-45.07 443.6,-39.79 433.12,-38.19 434.41,-45.07"/>
<path fill="none" stroke="black" d="M325.14,-473.19C286.92,-467.18 219.1,-450.08 190.53,-402.74"/>
</g>
<!-- torch&#45;&gt;llava_utils -->
<g id="edge55" class="edge">
<title>torch&#45;&gt;llava_utils</title><style>.edge>path:hover{stroke-width:8}</style>
<path fill="none" stroke="black" d="M838.53,-400.74C857.39,-384.2 838.85,-357.42 820.58,-338.32"/>
<polygon fill="blue" stroke="black" points="823.24,-336.03 813.68,-331.47 818.31,-341 823.24,-336.03"/>
<path fill="none" stroke="black" d="M379.67,-462.26C382.6,-461.12 385.6,-460.1 388.53,-459.31 574.18,-409.47 646.8,-507.64 819.53,-423.31 830.72,-417.85 829.18,-410.95 838.53,-402.74"/>
</g>
<!-- torch_nn -->
<g id="node26" class="node">
<title>torch_nn</title><style>.edge>path:hover{stroke-width:8}</style>
<polygon fill="blue" stroke="black" points="205.53,-567.31 151.53,-567.31 151.53,-531.31 205.53,-531.31 205.53,-567.31"/>
<text xml:space="preserve" text-anchor="middle" x="178.53" y="-545.43" font-family="Helvetica,sans-Serif" font-size="10.00" fill="white">torch.nn</text>
</g>
<!-- torch_nn&#45;&gt;llava_model_llava_arch -->
<g id="edge56" class="edge">
<title>torch_nn&#45;&gt;llava_model_llava_arch</title><style>.edge>path:hover{stroke-width:8}</style>
<path fill="none" stroke="black" d="M151.35,-539.74C102.41,-522.43 4.53,-478.36 4.53,-402.74 4.53,-402.74 4.53,-402.74 4.53,-313.65 4.53,-258.09 -13.6,-231.42 23.53,-190.09 48.64,-162.14 149.88,-142.6 213.5,-132.8"/>
<polygon fill="blue" stroke="black" points="213.66,-136.31 223.03,-131.37 212.62,-129.39 213.66,-136.31"/>
</g>
<!-- torch_nn&#45;&gt;torch -->
<g id="edge57" class="edge">
<title>torch_nn&#45;&gt;torch</title><style>.edge>path:hover{stroke-width:8}</style>
<path fill="none" stroke="black" d="M205.72,-537.37C235,-525.59 281.81,-506.76 314.68,-493.53"/>
<polygon fill="blue" stroke="black" points="315.87,-496.83 323.85,-489.85 313.26,-490.33 315.87,-496.83"/>
</g>
<!-- tqdm -->
<g id="node27" class="node">
<title>tqdm</title><style>.edge>path:hover{stroke-width:8}</style>
<ellipse fill="#c247b1" stroke="black" cx="152.53" cy="-477.31" rx="27" ry="18"/>
<text xml:space="preserve" text-anchor="middle" x="152.53" y="-473.43" font-family="Helvetica,sans-Serif" font-size="10.00" fill="#ffffff">tqdm</text>
</g>
<!-- tqdm&#45;&gt;llava_model_apply_delta -->
<g id="edge58" class="edge">
<title>tqdm&#45;&gt;llava_model_apply_delta</title><style>.edge>path:hover{stroke-width:8}</style>
<path fill="none" stroke="black" d="M152.53,-400.74C152.53,-372.01 119.91,-302.01 97.98,-258.22"/>
<polygon fill="#c247b1" stroke="black" points="101.12,-256.66 93.48,-249.31 94.87,-259.81 101.12,-256.66"/>
<path fill="none" stroke="black" d="M152.24,-459.06C152.06,-444.15 151.96,-422.02 152.53,-402.74"/>
</g>
<!-- tqdm&#45;&gt;llava_model_make_delta -->
<g id="edge59" class="edge">
<title>tqdm&#45;&gt;llava_model_make_delta</title><style>.edge>path:hover{stroke-width:8}</style>
<path fill="none" stroke="black" d="M152.53,-400.74C153.77,-359.34 178.57,-355.3 190.53,-315.65"/>
<path fill="none" stroke="black" d="M190.53,-313.65C196.09,-295.22 203.77,-275.33 210.69,-258.68"/>
<polygon fill="#c247b1" stroke="black" points="213.83,-260.23 214.5,-249.65 207.38,-257.5 213.83,-260.23"/>
</g>
</g>
</svg>
